<svg width="217" height="50" viewBox="0 0 217 50" fill="none" xmlns="http://www.w3.org/2000/svg">
<g clip-path="url(#clip0)">
<path d="M43.5992 27.8069V49.4229H37.9328V45.5404H18.8353V49.5803H13.2739V32.6863C8.76181 34.3652 4.40714 35.5194 0.577125 36.3589L0 34.1028C16.4218 29.0661 28.6988 20.5666 35.0997 9.81112H21.0913C19.6222 11.2802 18.0483 12.6443 16.4218 13.9559C18.8353 15.3725 21.511 17.3662 23.7671 19.4648L19.255 23.5572C17.5761 20.7765 15.7398 18.1532 13.7985 15.7922C10.2833 18.2581 6.45331 20.1994 2.78069 21.6684L1.73137 19.6747C10.1784 14.7429 16.894 7.71249 21.2487 0L26.915 2.72823C25.9182 4.24974 24.8164 5.71878 23.6097 7.13536H35.1522L37.3033 5.92865L42.9696 9.234C38.2476 17.6285 31.2172 23.5572 23.7671 27.8069H43.5992ZM37.9328 42.8646V30.4302H18.8353V42.8646H37.9328Z" fill="#1A5B96"/>
<path d="M76.6527 8.60418V2.15088H82.8437C82.8437 5.61363 82.7912 9.02391 82.8437 11.175C84.7324 25.7605 92.1826 36.8308 104.092 43.7039L99.6327 49.7899C91.9203 44.8581 83.6306 33.3156 81.532 18.2579C79.3809 34.6797 70.7765 44.5433 57.8699 49.685L56.7156 47.6913C72.6653 37.9326 76.6527 23.1897 76.6527 8.60418Z" fill="#1A5B96"/>
<path d="M135.257 42.8647H120.881V47.7965H115.792V25.4984H122.823V15.1627H113.431V12.4869H122.823V1.31167H128.174V12.4869H137.408V15.1627H128.174V25.4984H135.257V42.8647ZM130.168 28.1742H120.881V40.2414H130.168V28.1742ZM160.598 44.4386L156.873 50C153.043 47.6391 149.528 44.2288 146.747 39.7692C142.97 44.1763 137.985 47.5341 131.847 49.7377L130.902 47.744C136.726 44.7534 141.291 40.7136 144.491 35.5719C142.497 31.2172 141.081 26.1805 140.504 20.3043C139.244 22.403 137.933 24.1868 136.621 25.4984L134.942 24.2393C137.723 19.4124 140.451 10.2833 141.553 0.577148L147.482 1.67893C146.747 5.19415 145.645 8.81429 144.386 12.1721H159.182V14.7954H155.771C155.352 22.8227 153.41 29.8007 149.895 35.467C152.781 39.1396 156.348 42.0777 160.598 44.4386ZM146.905 30.9024C148.898 26.233 150.052 20.8815 150.315 14.7954H143.284C143.022 15.425 142.76 16.0021 142.445 16.5792C143.232 22.1406 144.753 26.8626 146.905 30.9024Z" fill="#1A5B96"/>
<path d="M216.16 32.791H211.018V42.1824H205.509V39.1394H195.908V44.1761C195.908 50.2097 190.451 52.2558 180.745 46.6945L181.322 44.5958C189.297 46.0649 190.294 45.6976 190.294 42.4972V39.1394H174.187V36.5161H190.294V32.791H169.885V30.1152H190.294V26.7049H175.079V24.1341H190.294V20.9337H175.708V11.6472H190.294V8.55174H169.99V5.82352H190.294V0.629395H195.908V5.82352H215.95V8.55174H195.908V11.6472H210.231V20.9337H195.908V24.1341H211.018V30.1152H216.16V32.791ZM190.294 18.5203V14.0607H181.112V18.5203H190.294ZM195.908 14.0607V18.5203H204.827V14.0607H195.908ZM195.908 30.1152H205.509V26.7049H195.908V30.1152ZM205.509 32.791H195.908V36.5161H205.509V32.791Z" fill="#1A5B96"/>
</g>
<defs>
<clipPath id="clip0">
<rect width="216.16" height="50" fill="white"/>
</clipPath>
</defs>
</svg>
