<svg width="164" height="30" viewBox="0 0 164 30" fill="none" xmlns="http://www.w3.org/2000/svg">
<g clip-path="url(#clip0)">
<path d="M4.88959 10.3471C4.88959 21.7035 3.84858 26.4354 1.1041 29.7792L0 29.0537C1.76656 25.142 1.73502 22.4606 1.73502 11.0095V1.70354H26.877V3.31237H4.88959V10.3471ZM17.9495 27.0979H27.1924V28.7067H3.88013V27.0979H8.26499V20.0632H11.1987V27.0979H14.8265V18.202H17.9495V22.019H24.795V23.5963H17.9495V27.0979ZM9.653 18.9906V14.2587C8.48581 16.1515 7.41325 17.2871 5.70978 18.6436L4.95268 17.7603C6.46688 15.8991 7.82334 13.9748 8.95899 10.8833H5.83596V9.33761H9.653V7.35022C8.42271 7.50795 7.22398 7.60259 6.05678 7.66568L5.89905 6.46694C9.27445 5.86758 11.9874 4.88966 13.9117 3.75401L15.9937 6.05685C14.7634 6.40385 13.5962 6.68776 12.429 6.90859V9.33761H15.8044V10.8833H12.429V11.2619C13.6909 11.9559 14.7319 12.6815 15.9621 13.9117L14.1956 15.7098C13.5962 14.7319 12.9968 13.9117 12.429 13.1862V18.9906H9.653ZM19.4953 19.0852V13.2808C18.3596 15.0789 16.9085 16.6878 14.4164 18.1704L13.7224 17.2556C15.9621 15.2682 17.4763 13.1862 18.4858 10.9149H16.2776V9.33761H19.4953V7.38177C18.3596 7.57105 17.1609 7.69723 15.8675 7.82341L15.6151 6.65622C18.9274 5.93067 21.3565 5.04739 23.6909 3.59628L25.7413 5.86758C24.7634 6.21458 23.5962 6.56158 22.2397 6.84549V9.33761H26.2461V10.9149H22.8076C23.9432 13.0285 25.8675 14.6373 27.571 15.6783L25.7729 18.1704C24.2902 16.8455 23.0915 15.0474 22.2397 12.713V19.0852H19.4953Z" fill="#1A5B96"/>
<path d="M62.0505 25.3943L60.9148 29.2429C56.0568 29.2744 50.5047 28.4227 45.6151 25.1735C42.9968 27.7287 39.2114 29.2113 34.1009 30L33.7539 28.6751C38.265 27.4132 41.4196 25.9937 43.4385 23.5331C41.6719 22.0189 40.0631 20.1262 38.6435 17.7918L39.6845 17.0031C41.2934 18.9274 42.9653 20.4416 44.7003 21.5773C45.5205 19.9369 46.0252 17.9495 46.2461 15.4259H36.877V5.58358H46.3722V0.41008H49.8107V5.58358H59.306V15.4259H49.6845C49.4006 18.5173 48.612 21.041 47.3186 23.0599C51.7035 25.0788 56.5615 25.3943 62.0505 25.3943ZM46.3407 13.7539C46.3722 13.1861 46.3722 12.6183 46.3722 12.0189V7.22396H40.1893V13.7539H46.3407ZM49.8107 7.22396V12.4606C49.8107 12.9022 49.8107 13.3438 49.7792 13.7539H55.9937V7.22396H49.8107Z" fill="#1A5B96"/>
<path d="M67.3502 23.06C70.1577 18.7697 72.0189 13.3123 73.0284 7.79182L76.9401 8.92746C75.2366 14.3849 72.3659 20.1262 68.4543 23.9748L67.3502 23.06ZM73.817 26.7824C79.4006 27.4764 80.1577 27.224 80.1577 24.9842V0.567841H83.6278V26.0568C83.6278 29.9054 80.5047 31.3565 73.5331 28.1388L73.817 26.7824ZM86.3407 8.45428L87.5394 7.63409C90.694 11.2303 94.4479 17.2555 96.2145 21.2303L92.3028 23.06C90.9148 18.8328 88.5173 12.6499 86.3407 8.45428Z" fill="#1A5B96"/>
<path d="M111.388 22.3345V26.7193C111.388 29.6216 108.265 30.7887 103.438 28.2651L103.722 27.0663C107.539 27.6342 108.328 27.2556 108.328 25.773V23.2809C105.994 23.9433 103.754 24.4796 102.177 24.732L101.388 21.7351C103.312 21.5458 105.804 21.1673 108.328 20.7257V17.7288L110.221 18.0758C110.978 17.1925 111.672 16.0569 112.114 15.2051H108.864C106.53 17.3187 104.069 19.0537 101.767 20.2525L101.104 19.2115C102.681 18.1389 104.385 16.814 106.057 15.2051H102.997V13.6279H107.571C108.328 12.8077 109.085 11.9244 109.779 10.978H101.483V9.40073H106.909V6.02534H102.587V4.44805H106.909V0.725651H109.968V4.44805H113.565V4.57423C114.069 3.47013 114.511 2.33448 114.89 1.1042L117.886 2.27139C116.909 4.85814 115.584 7.22407 114.038 9.40073H117.287V10.978H112.839C112.114 11.9244 111.325 12.8077 110.505 13.6279H112.303L113.155 13.1547L115.741 14.8897C114.826 15.9938 113.028 17.7604 111.388 18.8645V20.1578C113.407 19.7793 115.331 19.3376 116.877 18.896L117.256 20.0947C115.71 20.8203 113.596 21.6089 111.388 22.3345ZM110.915 9.40073C111.609 8.35972 112.271 7.22407 112.871 6.02534H109.968V9.40073H110.915ZM129.968 26.7193L127.697 29.9686C125.426 28.4544 123.628 26.3723 122.271 23.8487C120.126 26.3723 117.161 28.3597 113.186 29.7477L112.65 28.5805C116.562 26.7193 119.274 24.2588 121.073 21.2304C120.158 18.7383 119.558 15.9307 119.306 12.7761C118.517 14.3534 117.666 15.7414 116.751 16.8771L115.71 16.2146C117.697 12.5553 119.054 6.34079 119.59 0.536377L123.028 1.16729C122.713 3.15467 122.208 5.1736 121.577 7.12944H129.022V8.73827H127.319C127.098 13.4386 126.183 17.6973 124.101 21.2304C125.71 23.6279 127.729 25.2682 129.968 26.7193ZM122.524 18.2651C123.565 15.4891 124.038 12.3029 124.164 8.73827H121.041C120.883 9.17991 120.726 9.62155 120.536 10.0316C120.915 13.407 121.609 16.0884 122.524 18.2651Z" fill="#1A5B96"/>
<path d="M163.091 27.0032V28.612H135.994V27.0032H147.571V22.776H138.991V21.1672H147.571V17.6656H150.946V21.1672H159.653V22.776H150.946V27.0032H163.091ZM139.274 10.9464H136.151V4.70032H149.874C148.233 3.47003 146.341 2.23975 144.826 1.23028L145.268 0C147.35 0.410095 150.599 1.4511 152.587 2.46057L151.262 4.70032H162.587V10.9464H159.464V6.30915H139.274V10.9464ZM142.808 15.142C143.659 13.6909 144.448 12.0505 144.984 10.5363H140.347V8.95899H158.454V10.5363H148.644C147.634 11.9874 146.183 13.7539 144.795 15.1104C148.36 15.0789 152.019 14.8896 155.205 14.6372C154.416 13.5962 153.628 12.6498 152.934 11.8927L153.722 10.9148C155.899 12.1767 158.833 14.4795 160.631 16.5615L158.17 18.7382C157.571 17.8233 156.877 16.8454 156.183 15.8991C150.946 17.0662 143.785 17.8864 139.117 18.1388L138.486 15.0789C139.874 15.1104 141.325 15.142 142.808 15.142Z" fill="#1A5B96"/>
</g>
<defs>
<clipPath id="clip0">
<rect width="163.091" height="30" fill="white"/>
</clipPath>
</defs>
</svg>
