<svg width="217" height="50" viewBox="0 0 217 50" fill="none" xmlns="http://www.w3.org/2000/svg">
<g clip-path="url(#clip0)">
<path d="M8.13221 16.8416C8.13221 35.7293 6.40084 43.5992 1.83631 49.1606L0 47.9539C2.93809 41.4481 2.88562 36.9885 2.88562 17.9434V2.46594H44.7009V5.1417H8.13221V16.8416ZM29.8531 44.701H45.2256V47.3768H6.45331V44.701H13.7461V33.0011H18.6254V44.701H24.659V29.9056H29.8531V36.254H41.2382V38.8773H29.8531V44.701ZM16.0546 31.2173V23.3474C14.1133 26.4953 12.3295 28.3841 9.49633 30.6401L8.23715 29.1711C10.7555 26.0756 13.0115 22.8752 14.9003 17.7335H9.70619V15.1627H16.0546V11.8573C14.0084 12.1197 12.0147 12.2771 10.0735 12.382L9.81112 10.3883C15.425 9.39144 19.937 7.765 23.1375 5.87623L26.6002 9.70624C24.554 10.2834 22.6128 10.7556 20.6716 11.1228V15.1627H26.2854V17.7335H20.6716V18.3631C22.7702 19.5174 24.5016 20.7241 26.5477 22.7702L23.6097 25.7608C22.6128 24.1344 21.6159 22.7702 20.6716 21.5635V31.2173H16.0546ZM32.4239 31.3747V21.7209C30.5352 24.7115 28.1217 27.3872 23.9769 29.8531L22.8227 28.3316C26.5477 25.0263 29.0661 21.5635 30.745 17.786H27.0724V15.1627H32.4239V11.9098C30.5352 12.2246 28.5415 12.4345 26.3903 12.6443L25.9706 10.7031C31.4795 9.49637 35.5194 8.02733 39.4019 5.6139L42.8122 9.39144C41.1857 9.96857 39.2445 10.5457 36.9885 11.0179V15.1627H43.6516V17.786H37.9328C39.8216 21.3012 43.022 23.977 45.8552 25.7083L42.8646 29.8531C40.3987 27.6496 38.405 24.659 36.9885 20.7765V31.3747H32.4239Z" fill="#1A5B96"/>
<path d="M103.2 41.8678L101.312 48.2687C93.2319 48.3211 83.9979 46.9045 75.8657 41.5005C71.511 45.7503 65.2151 48.2162 56.7156 49.5278L56.1385 47.3243C63.6411 45.2256 68.8877 42.8647 72.2455 38.7723C69.3075 36.254 66.6317 33.106 64.2707 29.2235L66.0021 27.9119C68.6779 31.1123 71.4586 33.6307 74.3442 35.5194C75.7083 32.7912 76.5477 29.4859 76.915 25.2886H61.3326V8.91923H77.1249V0.314819H82.8437V8.91923H98.6359V25.2886H82.6338C82.1616 30.4302 80.85 34.6275 78.6988 37.9853C85.9916 41.3432 94.0714 41.8678 103.2 41.8678ZM77.0724 22.5079C77.1249 21.5635 77.1249 20.6191 77.1249 19.6223V11.6475H66.8416V22.5079H77.0724ZM82.8437 11.6475V20.3568C82.8437 21.0913 82.8437 21.8258 82.7912 22.5079H93.127V11.6475H82.8437Z" fill="#1A5B96"/>
<path d="M115.163 3.93494H156.034V48.4785H150.525V44.0189H120.672V48.6883H115.163V3.93494ZM150.525 41.3431V6.66316H120.672V41.3431H150.525ZM125.393 14.7954H145.435V32.9486H125.393V14.7954ZM140.294 30.4302V17.3137H130.588V30.4302H140.294Z" fill="#1A5B96"/>
<path d="M199.948 38.6149L204.302 41.6055C200.42 45.383 195.593 48.3211 191.186 50L190.136 48.1112C191.501 47.2718 192.707 46.3799 193.809 45.4355H180.955V48.3736H176.548V31.532C176.023 32.2141 175.551 32.8437 175.026 33.4208C174.082 39.4544 172.403 45.0157 169.832 49.0556L167.943 48.0063C170.409 41.0283 171.039 32.4239 171.039 22.3505V3.56768L175.341 4.4596C181.217 3.35782 184.995 2.09864 189.297 0L192.812 4.03987C188.615 5.29906 182.476 6.19098 176.023 6.6107V8.44701H192.445V17.1563H176.023V20.1994C176.023 22.7702 175.918 25.341 175.708 27.9119C177.02 24.7114 178.069 20.9864 178.699 17.5236L183.054 18.7828C182.634 20.3043 181.952 22.0357 181.112 23.8195H185.939C185.257 21.8783 184.47 19.9895 183.683 18.3631L185.31 17.3662C186.936 18.8353 188.51 20.724 189.769 22.7702L187.88 23.8195H193.704V26.2854H188.562V30.0105H192.812V32.3715H188.562V36.2015H192.865V38.6149H188.562V42.9696H193.861V45.383C196.17 43.4418 198.059 41.2907 199.948 38.6149ZM176.023 10.9654V14.638H187.723V10.9654H176.023ZM184.47 26.2854H180.955V30.0105H184.47V26.2854ZM184.47 32.4239H180.955V36.2015H184.47V32.4239ZM184.47 38.6149H180.955V42.9696H184.47V38.6149ZM201.417 5.82371H193.337V3.14795H214.69V5.82371H206.978C205.771 7.92235 204.407 9.86359 203.253 11.3326H212.854V37.9328H195.173V11.3326H200.63C200.944 9.54879 201.259 7.45016 201.417 5.82371ZM207.87 13.9035H200.105V19.1501H207.87V13.9035ZM207.87 21.7733H200.105V27.1249H207.87V21.7733ZM207.87 29.6957H200.105V35.3096H207.87V29.6957ZM216.632 45.2781L213.012 49.3704C210.965 46.7471 207.87 43.127 204.827 40.1889L206.086 38.3526C210.231 40.3987 213.169 42.34 216.632 45.2781Z" fill="#1A5B96"/>
</g>
<defs>
<clipPath id="clip0">
<rect width="216.632" height="50" fill="white"/>
</clipPath>
</defs>
</svg>
