<svg width="337" height="17" viewBox="0 0 337 17" fill="none" xmlns="http://www.w3.org/2000/svg">
<path d="M1 9.00119C1.12012 9.02271 1.29029 8.71608 1.4104 8.7376C1.53052 8.75911 1.63062 8.87746 1.75074 8.89898C1.87086 8.9205 2.04103 8.61387 2.16114 8.64077C2.28126 8.66228 2.29628 9.31858 2.41139 9.3401C2.53151 9.36162 2.80177 8.42559 2.91689 8.4471C3.03701 8.46862 3.11208 8.75374 3.22719 8.77525C3.34731 8.79677 3.37734 9.36162 3.49746 9.38314C3.61758 9.40465 3.81778 8.88822 3.93289 8.90974C4.05301 8.93126 4.1481 9.08726 4.26822 9.10878C4.38834 9.1303 4.52347 9.01733 4.64359 9.03885C4.76371 9.05499 4.80875 9.58756 4.92387 9.60907C5.04398 9.63059 5.14408 9.7866 5.25919 9.80812C5.37931 9.82963 5.53947 9.5499 5.65959 9.56604C5.77971 9.58756 5.92986 9.37776 6.04497 9.39927C6.16509 9.42079 6.26018 9.60907 6.37529 9.63059C6.49541 9.65211 6.70062 9.02809 6.82073 9.04423C6.94085 9.06037 7.03094 9.26479 7.15106 9.2863C7.27118 9.30244 7.38129 9.367 7.5014 9.38852C7.62152 9.40465 7.72663 9.4961 7.84674 9.51762C7.96686 9.53376 8.08698 9.54452 8.20209 9.56066C8.32221 9.5768 8.47236 9.31858 8.59248 9.33472C8.7126 9.35086 8.82771 9.37238 8.94783 9.38852C9.06795 9.40465 9.18306 9.44769 9.30318 9.46383C9.4233 9.47997 9.5334 9.5499 9.65352 9.56604C9.77364 9.58218 9.84371 9.98564 9.96383 10.0018C10.0839 10.0179 10.1941 10.1255 10.3092 10.1416C10.4293 10.1578 10.5144 10.459 10.6345 10.4752C10.7546 10.4913 10.8998 10.2869 11.0199 10.2976C11.14 10.3138 11.2201 10.685 11.3402 10.7011C11.4603 10.7172 11.6605 9.9964 11.7756 10.0072C11.8957 10.0233 12.0108 10.061 12.131 10.0771C12.2511 10.0932 12.3362 10.4106 12.4563 10.4268C12.5764 10.4429 12.6515 10.884 12.7716 10.9002C12.8917 10.9163 13.0268 10.7495 13.147 10.7603C13.2671 10.7764 13.3822 10.841 13.4973 10.8571C13.6174 10.8679 13.7876 10.3353 13.9077 10.3461C14.0278 10.3568 14.148 10.3299 14.2681 10.3407C14.3882 10.3514 14.4583 10.9163 14.5734 10.9271C14.6935 10.9378 14.8236 10.8517 14.9387 10.8679C15.0588 10.8786 15.209 10.5182 15.3291 10.529C15.4492 10.5397 15.5643 10.5612 15.6845 10.572C15.8046 10.5828 15.9497 10.2761 16.0648 10.2869C16.185 10.2976 16.26 10.8195 16.3801 10.8302C16.5003 10.841 16.5954 11.1315 16.7155 11.1422C16.8356 11.153 17.0008 10.5343 17.1209 10.5451C17.241 10.5559 17.3311 10.9217 17.4512 10.9324C17.5713 10.9432 17.6564 11.4004 17.7765 11.4112C17.8966 11.422 18.0468 10.9701 18.1669 10.9808C18.287 10.9916 18.3921 11.2283 18.5072 11.2337C18.6274 11.2444 18.7825 10.6796 18.9026 10.6904C19.0228 10.7011 19.1279 10.8733 19.248 10.884C19.3681 10.8948 19.4932 10.8248 19.6133 10.8356C19.7335 10.8464 19.8285 11.3144 19.9437 11.3198C20.0638 11.3251 20.2189 10.7011 20.339 10.7119C20.4592 10.7172 20.5743 10.7495 20.6944 10.7549C20.8145 10.7603 20.9346 10.7388 21.0548 10.7441C21.1749 10.7495 21.28 10.9808 21.4001 10.9916C21.5202 10.997 21.6153 11.5672 21.7304 11.5726C21.8505 11.578 22.0057 10.728 22.1258 10.7334C22.2459 10.7388 22.326 11.6318 22.4461 11.6371C22.5662 11.6425 22.6964 11.3682 22.8165 11.3735C22.9366 11.3789 23.0617 11.2122 23.1768 11.2175C23.297 11.2229 23.4121 11.3251 23.5272 11.3305C23.6473 11.3359 23.7874 10.7334 23.9026 10.7388C24.0227 10.7441 24.1178 11.4704 24.2379 11.4758C24.358 11.4811 24.4881 11.11 24.6032 11.1153C24.7234 11.1207 24.8485 10.7818 24.9686 10.7872C25.0887 10.7926 25.1988 10.9916 25.319 10.9916C25.4391 10.997 25.5392 11.7125 25.6593 11.7125C25.7794 11.7178 25.9145 10.8087 26.0297 10.8141C26.1498 10.8141 26.2549 11.4973 26.37 11.4973C26.4901 11.4973 26.6102 11.3198 26.7253 11.3198C26.8405 11.3198 26.9656 10.884 27.0807 10.884C27.1958 10.884 27.3109 11.196 27.431 11.2014C27.5461 11.2014 27.6613 11.8308 27.7864 11.8308C27.9015 11.8308 28.0216 11.8685 28.1467 11.8685C28.2619 11.8685 28.377 10.9862 28.4971 10.9862C28.6122 10.9862 28.7273 10.8571 28.8474 10.8571C28.9625 10.8571 29.0927 11.3413 29.2128 11.3413C29.3279 11.3359 29.468 11.82 29.5882 11.8147C29.7033 11.8093 29.8084 11.3574 29.9285 11.352C30.0436 11.3466 30.1787 11.6479 30.2989 11.6425C30.414 11.6371 30.489 10.8033 30.6042 10.7979C30.7193 10.7872 30.8794 11.4327 30.9995 11.4273C31.1147 11.4166 31.1947 10.9002 31.3149 10.8894C31.43 10.8786 31.6001 11.4327 31.7203 11.4166C31.8354 11.4058 31.9505 11.3036 32.0706 11.2875C32.1857 11.2713 32.2658 10.9055 32.3859 10.8894C32.501 10.8733 32.5861 10.5881 32.7012 10.5666C32.8163 10.5505 32.9565 10.728 33.0766 10.7119C33.1917 10.6904 33.3569 10.9808 33.472 10.9593C33.5871 10.9378 33.7422 11.1315 33.8624 11.11C33.9775 11.0884 34.1477 11.309 34.2628 11.2821C34.3779 11.2552 34.3128 10.2761 34.4279 10.2492C34.543 10.2223 34.6732 10.2869 34.7883 10.2546C34.9034 10.2277 35.0335 10.2654 35.1486 10.2331C35.2638 10.2008 35.3638 10.1309 35.479 10.0986C35.5941 10.0663 35.6942 10.0018 35.8093 9.96412C35.9244 9.92646 36.0846 10.0771 36.1997 10.0394C36.3148 10.0018 36.6151 10.5559 36.7302 10.5128C36.8453 10.4698 36.8753 10.1632 36.9854 10.1147C37.0956 10.0717 37.2557 10.1416 37.3658 10.0932C37.4759 10.0448 37.3858 9.47459 37.4959 9.42079C37.6061 9.37238 37.7412 9.39389 37.8463 9.3401C37.9564 9.2863 37.9464 8.99043 38.0515 8.93126C38.1566 8.87208 38.4169 9.14644 38.522 9.08188C38.6271 9.02271 38.7522 9.00119 38.8573 8.93664C38.9624 8.87208 39.0024 8.70532 39.1025 8.63539C39.2026 8.56545 39.563 8.91512 39.6581 8.83981C39.7582 8.76987 39.9634 8.82905 40.0585 8.75374C40.1536 8.67842 39.7782 7.93605 39.8733 7.85536C39.9684 7.77467 40.1235 7.79619 40.2186 7.71011C40.3087 7.62404 40.7792 7.98447 40.8643 7.8984C40.9494 7.81232 40.6841 7.32279 40.7642 7.23134C40.8493 7.13989 41.0745 7.19368 41.1546 7.09685C41.2246 7.01078 41.2997 6.91395 41.3798 6.81174C41.4498 6.72029 41.8202 6.88167 41.8953 6.77946C41.9654 6.68801 41.9303 6.47821 42.0054 6.376C42.0755 6.27917 42.0004 6.05323 42.0705 5.94564C42.1355 5.84343 42.4208 5.87571 42.4809 5.76812C42.5409 5.66053 42.3007 5.34852 42.3557 5.23555C42.4108 5.12258 42.7761 5.15486 42.8212 5.04189C42.8712 4.92354 43.0164 4.80519 43.0514 4.68684C43.0865 4.56849 42.5659 4.26724 42.586 4.14351C42.606 4.01978 42.6861 3.91757 42.6911 3.79384C42.6961 3.67012 43.0414 3.49259 43.0264 3.36886C43.0064 3.24514 42.2807 3.34197 42.2356 3.22362C42.1906 3.09989 42.4408 2.86857 42.3908 2.76098C42.3357 2.64263 42.581 2.336 42.5209 2.23379C42.4558 2.12082 41.8552 2.45435 41.7802 2.3629C41.7001 2.26069 42.1505 1.60439 42.0655 1.5237C41.9704 1.43763 41.6851 1.58825 41.585 1.52908C41.4999 1.45915 41.4799 1.03955 41.3698 1.00189C41.2546 0.964233 41.0094 1.50218 40.8893 1.49142C40.7742 1.48066 40.6891 1.63129 40.569 1.64205C40.4539 1.65281 40.2487 1.09334 40.1285 1.12562C40.0134 1.15789 39.8833 1.23859 39.7682 1.287C39.6581 1.33004 39.6681 1.69046 39.558 1.74964C39.4529 1.80881 39.4979 2.10468 39.3978 2.17462C39.2977 2.24455 38.9974 1.97558 38.8973 2.05627C38.8022 2.13158 38.4919 1.95406 38.4018 2.04013C38.3118 2.1262 38.1966 2.21765 38.1116 2.30911C38.0265 2.40056 38.4669 3.00844 38.3868 3.10527C38.3118 3.2021 37.6411 2.79864 37.571 2.90085C37.501 3.00306 37.3858 3.11065 37.3208 3.21824C37.2557 3.32583 37.8913 3.89606 37.8363 4.00364C37.7762 4.11661 37.2007 3.93909 37.1506 4.05206C37.1006 4.17041 36.8853 4.24034 36.8453 4.35869C36.8053 4.48242 36.8053 4.65456 36.7702 4.77291C36.7402 4.89664 36.6952 5.05803 36.6751 5.18175C36.6551 5.31086 37.1856 5.52066 37.1806 5.64977C37.1706 5.77888 37.2307 5.88109 37.2357 6.0102C37.2407 6.1393 37.0405 6.26841 37.0605 6.39752C37.0805 6.52663 36.7502 6.75794 36.7802 6.88167C36.8153 7.0054 37.0505 7.08609 37.0956 7.20444C37.1406 7.32279 37.1106 7.50031 37.1656 7.61866C37.2207 7.73163 37.1806 7.93605 37.2457 8.04902C37.3108 8.15661 37.3608 8.31262 37.4359 8.42021C37.506 8.52242 37.9564 8.31262 38.0365 8.41483C38.1166 8.51166 37.8863 8.92588 37.9714 9.01733C38.0565 9.10878 38.4619 8.85595 38.552 8.94202C38.6371 9.02809 38.4619 9.45307 38.557 9.53376C38.6471 9.61445 39.2126 9.06575 39.3077 9.14106C39.4028 9.21637 39.0575 9.93722 39.1576 10.0125C39.2527 10.0878 39.7532 9.52838 39.8583 9.59832C39.9584 9.66825 39.8533 10.0717 39.9584 10.1416C40.0585 10.2116 40.2487 10.1147 40.3538 10.1793C40.4589 10.2439 40.2987 10.8141 40.4038 10.8733C40.5089 10.9324 40.9193 10.3891 41.0244 10.4483C41.1295 10.5074 41.1045 10.8464 41.2096 10.9002C41.3147 10.9593 41.3598 11.1637 41.4649 11.2229C41.575 11.2767 41.61 11.508 41.7201 11.5618C41.8302 11.6156 42.1555 11.1368 42.2656 11.1853C42.3758 11.2337 42.3307 11.6909 42.4408 11.7447C42.5509 11.7931 42.7161 11.7125 42.8262 11.7609C42.9363 11.8093 43.1615 11.5457 43.2716 11.5941C43.3868 11.6425 43.3117 12.2235 43.4268 12.2665C43.5419 12.3096 43.7871 11.9492 43.9023 11.9922C44.0174 12.0352 43.9523 12.6431 44.0674 12.6861C44.1825 12.7292 44.5029 12.1052 44.618 12.1482C44.7331 12.1859 44.8932 12.0729 45.0083 12.1105C45.1235 12.1482 45.0184 12.9605 45.1335 12.9982C45.2486 13.0358 45.6039 12.2127 45.7241 12.2504C45.8392 12.2881 45.9293 12.4118 46.0444 12.4494C46.1595 12.4871 46.1795 12.9013 46.2946 12.9336C46.4097 12.9659 46.5799 12.7991 46.695 12.8314C46.8151 12.8637 46.8752 13.1219 46.9903 13.1542C47.1104 13.1864 47.2305 13.1918 47.3457 13.2241C47.4658 13.2564 47.6009 13.2026 47.721 13.2295C47.8411 13.2617 48.0313 12.9444 48.1464 12.9713C48.2666 13.0035 48.2966 13.4285 48.4117 13.4554C48.5318 13.4823 48.692 13.3048 48.8071 13.3317C48.9272 13.3586 49.0724 13.2617 49.1825 13.2886C49.3076 13.3155 49.4177 13.3532 49.5328 13.3801C49.6579 13.407 49.748 13.563 49.8581 13.5899C49.9883 13.6168 50.1184 13.5522 50.2285 13.5738C50.3636 13.6007 50.4887 13.5845 50.5838 13.6007C50.6489 13.6114 50.739 13.8105 50.8791 13.8374C50.9792 13.8589 51.0843 13.9234 51.2045 13.9449C51.3246 13.9665 51.3696 14.4775 51.4897 14.499C51.6098 14.5205 51.78 14.187 51.9001 14.2032C52.0203 14.2193 52.1103 14.4721 52.2305 14.4937C52.3506 14.5098 52.5408 13.9127 52.6609 13.9288C52.781 13.9449 52.8861 14.0633 53.0062 14.0794C53.1263 14.0956 53.2264 14.3054 53.3416 14.3215C53.4617 14.3323 53.5418 14.8164 53.6619 14.8326C53.782 14.8433 53.9221 14.6174 54.0422 14.6281C54.1624 14.6389 54.3275 13.9826 54.4476 13.988C54.5678 13.9987 54.6729 14.2193 54.793 14.2247C54.9131 14.2301 55.0232 14.3538 55.1433 14.3592C55.2635 14.3645 55.3886 14.2301 55.5087 14.2354C55.6288 14.2408 55.7489 14.1063 55.869 14.1117C55.9892 14.1171 56.0993 14.4399 56.2194 14.4452C56.3395 14.4506 56.4596 14.4022 56.5797 14.4022C56.6999 14.4022 56.82 14.3592 56.9401 14.3592C57.0602 14.3592 57.1803 14.5474 57.3005 14.5474C57.4206 14.5474 57.5357 14.187 57.6558 14.187C57.7759 14.187 57.901 14.4829 58.0212 14.4829C58.1413 14.4829 58.2564 14.2354 58.3765 14.2301C58.4966 14.2247 58.6117 14.1386 58.7319 14.1332C58.852 14.1278 58.9921 14.7303 59.1122 14.725C59.2324 14.7196 59.3475 14.612 59.4676 14.6066C59.5877 14.6012 59.7078 14.5421 59.8279 14.5367C59.9481 14.5313 60.0632 14.456 60.1833 14.4452C60.3034 14.4345 60.4436 14.768 60.5637 14.7572C60.6838 14.7465 60.8089 14.7895 60.929 14.7788C61.0491 14.768 61.1292 14.2032 61.2493 14.1924C61.3695 14.1816 61.5446 14.8648 61.6648 14.8541C61.7849 14.8433 61.8499 14.187 61.9701 14.1763C62.0902 14.1655 62.2353 14.4506 62.3554 14.4345C62.4756 14.4237 62.5757 14.2085 62.6958 14.1924C62.8159 14.1816 62.921 14.0149 63.0411 14.0041C63.1612 13.988 63.3064 14.2462 63.4265 14.2354C63.5466 14.2193 63.6267 13.8643 63.7468 13.8481C63.8669 13.832 64.0221 14.1278 64.1372 14.1117C64.2573 14.0956 64.3824 14.1547 64.5025 14.1386C64.6227 14.1225 64.6677 13.5146 64.7878 13.4984C64.9079 13.4823 65.0681 13.8158 65.1882 13.7997C65.3083 13.7836 65.4885 14.257 65.6086 14.2408C65.7288 14.2247 65.7588 13.5415 65.8789 13.52C65.999 13.5038 66.0891 13.2671 66.2042 13.251C66.3244 13.2349 66.4695 13.4124 66.5846 13.3962C66.7047 13.3801 66.8148 13.294 66.9299 13.2779C67.0501 13.2564 67.1952 13.4447 67.3153 13.4231C67.4354 13.4016 67.5756 13.5361 67.6957 13.52C67.8158 13.4984 67.8759 13.0735 67.991 13.0573C68.1111 13.0358 68.2963 13.4715 68.4114 13.4554C68.5315 13.4339 68.6166 13.2026 68.7367 13.1811C68.8568 13.1595 69.022 13.45 69.1371 13.4285C69.2572 13.407 69.3023 12.9228 69.4224 12.9013C69.5425 12.8798 69.7477 13.4339 69.8678 13.4124C69.988 13.3909 70.0931 13.294 70.2132 13.2725C70.3333 13.251 70.4234 13.0466 70.5385 13.0251C70.6586 13.0035 70.6987 12.4871 70.8188 12.4656C70.9389 12.4441 71.059 12.4441 71.1791 12.4225C71.2992 12.401 71.4944 12.8798 71.6146 12.8583C71.7347 12.8368 71.9249 13.2725 72.04 13.251C72.1601 13.2295 72.2051 12.7561 72.3253 12.7346C72.4454 12.713 72.5655 12.7184 72.6856 12.6969C72.8057 12.6754 72.9959 13.1434 73.116 13.1219C73.2362 13.1004 73.2362 12.3042 73.3513 12.2827C73.4714 12.2612 73.6315 12.5355 73.7517 12.514C73.8718 12.4925 73.9969 12.5194 74.117 12.4979C74.2371 12.4763 74.4173 12.8798 74.5374 12.8583C74.6576 12.8368 74.6375 11.8738 74.7526 11.8523C74.8728 11.8308 74.9929 11.8147 75.113 11.7985C75.2331 11.777 75.3683 11.89 75.4884 11.8685C75.6085 11.8469 75.7486 11.9814 75.8688 11.9599C75.9889 11.9384 76.079 11.7125 76.1941 11.6909C76.3142 11.6694 76.4944 12.0944 76.6095 12.0783C76.7296 12.0621 76.8497 12.046 76.9648 12.0298C77.085 12.0137 77.2551 12.4064 77.3752 12.3849C77.4954 12.3688 77.5754 12.0621 77.6955 12.046C77.8157 12.0298 77.8607 11.422 77.9808 11.4058C78.101 11.3897 78.3212 12.2235 78.4413 12.202C78.5614 12.1859 78.6665 12.0675 78.7866 12.0514C78.9067 12.0352 79.0068 11.8738 79.127 11.8577C79.2471 11.8416 79.3522 11.6909 79.4673 11.6748C79.5874 11.6587 79.6825 11.4435 79.8026 11.4273C79.9227 11.4112 80.0078 11.0723 80.1279 11.0562C80.2481 11.04 80.3732 11.0669 80.4933 11.0508C80.6134 11.04 80.7836 11.6049 80.9037 11.5941C81.0238 11.5833 81.159 11.777 81.2791 11.7609C81.3992 11.7501 81.5243 11.8631 81.6444 11.8523C81.7646 11.8416 81.8046 10.841 81.9247 10.8302C82.0448 10.8195 82.2 11.2929 82.3201 11.2821C82.4402 11.2713 82.5553 11.2229 82.6755 11.2122C82.7956 11.2014 82.9257 11.3682 83.0458 11.3574C83.1659 11.3466 83.246 10.7334 83.3611 10.7226C83.4813 10.7119 83.6564 11.5134 83.7765 11.5027C83.8967 11.4919 84.0218 11.5941 84.1419 11.5887C84.262 11.578 84.3821 11.5672 84.5023 11.5618C84.6224 11.5511 84.7325 11.3897 84.8526 11.3843C84.9727 11.3735 85.0828 11.2068 85.2029 11.196C85.3231 11.1906 85.4582 11.4865 85.5783 11.4811C85.6984 11.4758 85.8085 11.3198 85.9287 11.309C86.0488 11.3036 86.1589 11.1315 86.279 11.1261C86.3991 11.1207 86.4992 10.728 86.6193 10.7226C86.7395 10.7172 86.8546 10.6258 86.9747 10.6204C87.0948 10.615 87.2399 11.1476 87.3601 11.1422C87.4802 11.1368 87.5753 10.5397 87.6954 10.5343C87.8155 10.529 87.9456 10.7119 88.0658 10.7065C88.1859 10.7011 88.311 10.8087 88.4311 10.8033C88.5512 10.7979 88.6814 11.04 88.8015 11.0346C88.9216 11.0293 89.0417 11.04 89.1618 11.0346C89.282 11.0293 89.3871 10.6258 89.5072 10.6204C89.6273 10.615 89.7524 10.7065 89.8725 10.7011C89.9927 10.6957 90.1028 10.3891 90.2229 10.3837C90.343 10.3783 90.4781 10.9647 90.5983 10.9593C90.7184 10.9539 90.8385 10.9163 90.9586 10.9109C91.0787 10.9055 91.1989 10.8571 91.319 10.8517C91.4391 10.8464 91.5542 10.5343 91.6743 10.529C91.7944 10.5236 91.9196 10.8733 92.0397 10.8733C92.1598 10.8679 92.2849 11.1207 92.405 11.1207C92.5252 11.1207 92.6453 11.1584 92.7654 11.1584C92.8855 11.1584 93.0006 10.8625 93.1207 10.8571C93.2409 10.8517 93.366 11.2068 93.4861 11.2068C93.6062 11.2068 93.7213 10.8786 93.8414 10.8786C93.9616 10.8786 94.0817 10.6581 94.2018 10.6581C94.3219 10.6581 94.442 10.5451 94.5622 10.5451C94.6823 10.5451 94.8024 10.7172 94.9225 10.7172C95.0426 10.7172 95.1628 10.6043 95.2829 10.6043C95.403 10.6043 95.5231 10.26 95.6432 10.26C95.7633 10.26 95.8835 10.303 96.0036 10.303C96.1237 10.303 96.2438 10.3837 96.3639 10.3837C96.4841 10.3837 96.5992 11.2498 96.7193 11.2498C96.8394 11.2498 96.9595 10.9378 97.0796 10.9378C97.1998 10.9378 97.3199 11.1261 97.44 11.1261C97.5601 11.1261 97.6802 10.8141 97.8004 10.8195C97.9205 10.8195 98.0356 11.0185 98.1557 11.0185C98.2758 11.0185 98.4059 10.2761 98.5261 10.2815C98.6462 10.2815 98.7613 10.7764 98.8814 10.7818C99.0015 10.7818 99.1167 11.0131 99.2368 11.0185C99.3569 11.0185 99.472 11.2391 99.5921 11.2391C99.7122 11.2391 99.8524 10.2546 99.9725 10.26C100.093 10.2654 100.193 11.1853 100.313 11.1853C100.433 11.1853 100.568 10.4375 100.688 10.4375C100.808 10.4429 100.913 11.0723 101.034 11.0777C101.154 11.0831 101.269 11.1853 101.389 11.1906C101.509 11.196 101.644 10.6258 101.764 10.6312C101.884 10.6366 102.009 10.5612 102.125 10.5666C102.245 10.572 102.355 10.8679 102.475 10.8733C102.595 10.8786 102.7 11.2552 102.82 11.2606C102.94 11.266 103.066 11.0777 103.186 11.0831C103.306 11.0884 103.416 11.3305 103.536 11.3359C103.656 11.3413 103.786 11.1153 103.906 11.1261C104.026 11.1315 104.147 11.1637 104.267 11.1691C104.387 11.1745 104.502 11.3198 104.622 11.3251C104.742 11.3305 104.897 10.4859 105.017 10.4913C105.138 10.4967 105.238 10.9647 105.358 10.9701C105.478 10.9755 105.588 11.153 105.708 11.1584C105.828 11.1637 105.963 10.8248 106.084 10.8302C106.204 10.8356 106.319 10.9163 106.439 10.9271C106.559 10.9324 106.654 11.3897 106.774 11.3951C106.894 11.4004 107.054 10.7065 107.17 10.7119C107.29 10.7172 107.38 11.2498 107.5 11.2606C107.62 11.266 107.775 10.6904 107.895 10.6957C108.015 10.7065 108.131 10.8087 108.251 10.8141C108.371 10.8248 108.486 10.9378 108.606 10.9486C108.726 10.9593 108.821 11.3574 108.941 11.3682C109.061 11.3789 109.212 10.9109 109.332 10.9163C109.452 10.927 109.547 11.2713 109.667 11.2821C109.787 11.2929 109.942 10.7926 110.062 10.8033C110.183 10.8141 110.268 11.2875 110.388 11.2982C110.508 11.309 110.663 10.8087 110.783 10.8195C110.903 10.8302 111.008 11.0615 111.128 11.0723C111.249 11.0831 111.379 10.9755 111.499 10.9862C111.619 10.997 111.714 11.3574 111.834 11.3682C111.954 11.3789 112.084 11.2283 112.205 11.2391C112.325 11.2498 112.42 11.5887 112.54 11.5995C112.66 11.6102 112.805 11.3251 112.92 11.3359C113.04 11.3466 113.15 11.4811 113.271 11.4919C113.391 11.5027 113.481 11.89 113.596 11.9007C113.716 11.9115 113.901 11.1691 114.016 11.1799C114.136 11.1906 114.247 11.3036 114.367 11.3198C114.487 11.3359 114.592 11.4919 114.712 11.5027C114.832 11.5134 114.912 11.9492 115.032 11.9599C115.152 11.9707 115.323 11.4112 115.443 11.422C115.563 11.4327 115.613 12.1966 115.733 12.2074C115.853 12.2181 115.988 12.0406 116.108 12.0514C116.229 12.0621 116.354 12.046 116.469 12.0621C116.589 12.0729 116.714 12.0137 116.834 12.0245C116.954 12.0352 117.044 12.3849 117.159 12.3957C117.28 12.4118 117.435 12.0406 117.555 12.0567C117.675 12.0729 117.77 12.3419 117.89 12.3526C118.01 12.3688 118.145 12.2343 118.266 12.2504C118.386 12.2665 118.476 12.6162 118.596 12.627C118.716 12.6431 118.906 11.9761 119.026 11.9868C119.146 12.0029 119.251 12.1859 119.372 12.1966C119.492 12.2127 119.637 11.9707 119.757 11.9814C119.877 11.9976 120.012 11.8846 120.132 11.9007C120.252 11.9169 120.308 12.5786 120.428 12.5947C120.548 12.6108 120.683 12.4925 120.803 12.5086C120.923 12.5248 121.058 12.4064 121.178 12.4225C121.299 12.4387 121.369 12.939 121.489 12.9497C121.609 12.9659 121.729 12.9659 121.849 12.982C121.969 12.9982 122.149 12.4333 122.269 12.4441C122.39 12.4602 122.505 12.5248 122.625 12.5409C122.745 12.557 122.855 12.6861 122.97 12.7023C123.09 12.7184 123.23 12.5732 123.346 12.5839C123.466 12.6001 123.521 13.2187 123.641 13.2349C123.761 13.251 123.891 13.1595 124.011 13.1757C124.131 13.1918 124.311 12.67 124.432 12.6808C124.552 12.6969 124.702 12.4494 124.822 12.4602C124.942 12.4763 124.967 13.3263 125.087 13.3424C125.207 13.3586 125.368 13.0143 125.488 13.0304C125.608 13.0466 125.738 12.982 125.858 12.9982C125.978 13.0143 126.113 12.9013 126.233 12.9175C126.353 12.9336 126.454 13.1004 126.574 13.1165C126.694 13.1326 126.859 12.7776 126.974 12.7937C127.094 12.8099 127.184 13.095 127.304 13.1111C127.425 13.1273 127.495 13.5791 127.61 13.5953C127.73 13.6114 127.915 13.0896 128.03 13.1057C128.15 13.1219 128.195 13.7782 128.31 13.7943C128.431 13.8105 128.661 12.9121 128.776 12.9282C128.896 12.9444 129.011 13.0143 129.126 13.0304C129.246 13.0466 129.316 13.4715 129.437 13.4877C129.557 13.5038 129.687 13.4339 129.807 13.45C129.927 13.4662 129.992 13.9396 130.107 13.9611C130.227 13.9772 130.372 13.7943 130.488 13.8158C130.608 13.832 130.728 13.8212 130.848 13.8427C130.968 13.8589 131.088 13.8858 131.203 13.9019C131.323 13.918 131.428 14.0472 131.549 14.0633C131.669 14.0794 131.764 14.3 131.879 14.3161C131.999 14.3323 132.144 14.1278 132.264 14.144C132.384 14.1601 132.525 13.988 132.645 14.0041C132.765 14.0203 132.94 13.5953 133.055 13.6114C133.175 13.6276 133.185 14.5044 133.305 14.5205C133.425 14.5367 133.586 14.2354 133.701 14.257C133.821 14.2731 133.981 13.9611 134.101 13.9772C134.221 13.9934 134.351 13.9396 134.466 13.9557C134.587 13.9718 134.607 14.7788 134.722 14.7949C134.842 14.811 134.967 14.7949 135.082 14.811C135.202 14.8272 135.377 14.4291 135.492 14.4452C135.613 14.4614 135.793 14.0203 135.908 14.0364C136.028 14.0525 136.068 14.6981 136.188 14.7142C136.308 14.7303 136.448 14.5743 136.569 14.5905C136.689 14.6066 136.794 14.7519 136.909 14.7734C137.029 14.7895 137.124 15.0208 137.239 15.0424C137.359 15.0585 137.56 14.4399 137.675 14.456C137.795 14.4721 137.86 14.9186 137.98 14.9348C138.1 14.9509 138.235 14.8326 138.355 14.8487C138.475 14.8648 138.661 14.3376 138.776 14.3538C138.896 14.3699 138.936 15.08 139.051 15.0908C139.171 15.1069 139.256 15.4297 139.371 15.4458C139.491 15.462 139.612 15.4566 139.732 15.4727C139.852 15.4889 140.072 14.6066 140.187 14.6228C140.307 14.6389 140.392 14.9563 140.512 14.9724C140.633 14.9886 140.773 14.8164 140.888 14.8326C141.008 14.8487 141.088 15.2522 141.203 15.2683C141.323 15.2844 141.423 15.462 141.543 15.4781C141.664 15.4942 141.774 15.6287 141.894 15.6449C142.014 15.6556 142.204 14.9401 142.324 14.9509C142.444 14.9617 142.549 15.1338 142.67 15.1446C142.79 15.1553 142.87 15.6287 142.99 15.6395C143.11 15.6502 143.27 15.1499 143.39 15.1607C143.51 15.1715 143.625 15.2145 143.746 15.2253C143.866 15.236 143.966 15.4942 144.086 15.4996C144.206 15.5104 144.321 15.5588 144.441 15.5696C144.561 15.5803 144.702 15.2414 144.817 15.2522C144.937 15.2575 145.022 15.8869 145.142 15.8923C145.262 15.8977 145.417 15.0693 145.537 15.0746C145.657 15.08 145.768 15.2844 145.883 15.2898C146.003 15.2952 146.108 15.774 146.223 15.7793C146.343 15.7847 146.458 15.9999 146.578 15.9999C146.699 16.0053 146.824 15.7686 146.944 15.774C147.064 15.774 147.184 15.4781 147.304 15.4781C147.424 15.4781 147.539 15.4351 147.659 15.4351C147.78 15.4351 147.895 15.1338 148.01 15.1338C148.13 15.1338 148.255 15.7202 148.375 15.7202C148.495 15.7202 148.61 15.6072 148.731 15.6018C148.851 15.5964 148.976 15.7901 149.091 15.7901C149.211 15.7847 149.316 15.4781 149.436 15.4727C149.556 15.4673 149.661 15.2091 149.782 15.2037C149.902 15.1984 150.007 15.0262 150.127 15.0208C150.247 15.0155 150.387 15.4351 150.507 15.4243C150.627 15.4135 150.778 15.9192 150.898 15.9085C151.018 15.8977 151.113 15.5911 151.233 15.5803C151.353 15.5696 151.428 15.037 151.548 15.0262C151.668 15.0155 151.769 14.8433 151.889 14.8326C152.009 14.8218 152.179 15.3813 152.294 15.3651C152.414 15.3544 152.544 15.4835 152.664 15.4727C152.78 15.4566 152.855 15.0047 152.97 14.9886C153.085 14.9724 153.285 15.6771 153.405 15.661C153.52 15.6449 153.545 14.7895 153.66 14.7734C153.775 14.7572 153.976 15.3974 154.096 15.3813C154.216 15.3651 154.356 15.505 154.471 15.4889C154.591 15.4727 154.591 14.5474 154.711 14.5313C154.827 14.5152 154.942 14.456 155.057 14.4399C155.177 14.4237 155.337 14.725 155.457 14.7035C155.572 14.6819 155.782 15.2683 155.898 15.2468C156.018 15.2253 156.068 14.7303 156.188 14.7088C156.308 14.6873 156.428 14.6873 156.548 14.6658C156.668 14.6443 156.763 14.4829 156.879 14.4614C156.999 14.4399 157.169 14.7572 157.289 14.7357C157.409 14.7142 157.444 14.1978 157.559 14.1709C157.679 14.1494 157.799 14.1547 157.915 14.1278C158.035 14.1009 158.13 13.988 158.25 13.9611C158.37 13.9342 158.555 14.2892 158.67 14.2623C158.79 14.2354 158.971 14.5528 159.091 14.5259C159.211 14.499 159.176 13.7298 159.296 13.7029C159.416 13.676 159.516 13.5899 159.631 13.563C159.751 13.5361 160.007 14.1601 160.122 14.1332C160.237 14.1063 160.317 13.8911 160.432 13.8643C160.547 13.832 160.727 14.0794 160.842 14.0525C160.958 14.0203 161.103 14.0956 161.218 14.0633C161.333 14.031 161.298 13.364 161.408 13.3317C161.523 13.2994 161.813 13.9503 161.924 13.9127C162.039 13.8804 162.109 13.6598 162.224 13.6222C162.339 13.5845 162.349 13.1488 162.464 13.1165C162.579 13.0788 162.679 12.9928 162.794 12.9605C162.909 12.9228 163.14 13.2833 163.255 13.2456C163.37 13.208 163.515 13.2564 163.625 13.2187C163.74 13.1811 163.63 12.401 163.745 12.3634C163.86 12.3203 164.111 12.7238 164.221 12.6861C164.336 12.6431 164.451 12.6055 164.561 12.5624C164.676 12.5194 164.901 12.8153 165.012 12.7722C165.127 12.7292 165.232 12.6592 165.342 12.6162C165.457 12.5732 165.637 12.7184 165.747 12.6754C165.862 12.6323 165.882 12.3203 165.993 12.2773C166.103 12.2289 166.068 11.7663 166.178 11.7178C166.293 11.6694 166.538 11.9976 166.648 11.9492C166.763 11.9007 166.703 11.3951 166.813 11.3466C166.923 11.2982 167.214 11.7286 167.324 11.6856C167.434 11.6371 167.399 11.196 167.509 11.1476C167.619 11.0992 167.724 11.0293 167.834 10.9808C167.944 10.9324 168.21 11.2982 168.32 11.2498C168.43 11.2014 168.435 10.8625 168.545 10.8141C168.655 10.7657 168.715 10.572 168.825 10.529C168.935 10.4806 169.266 11.0454 169.376 11.0024C169.486 10.9593 169.421 10.4106 169.531 10.3676C169.641 10.3245 169.851 10.5612 169.961 10.5182C170.072 10.4752 170.192 10.4644 170.302 10.4214C170.412 10.3783 170.342 9.77046 170.457 9.72742C170.567 9.68439 170.877 10.2708 170.987 10.2331C171.098 10.1954 171.228 10.217 171.343 10.1739C171.458 10.1363 171.523 9.94798 171.638 9.91033C171.753 9.87267 171.798 9.59832 171.913 9.56604C172.028 9.53376 172.089 9.2863 172.204 9.24865C172.319 9.21637 172.569 9.74894 172.684 9.71666C172.799 9.68439 172.839 9.3401 172.959 9.30782C173.075 9.28093 173.095 8.78601 173.215 8.75374C173.33 8.72684 173.625 9.61983 173.74 9.59294C173.855 9.56604 173.9 9.17871 174.015 9.15182C174.131 9.1303 174.196 8.78063 174.311 8.75911C174.426 8.7376 174.541 8.67304 174.661 8.6569C174.776 8.63539 174.901 8.6569 175.021 8.64077C175.137 8.62463 175.362 9.41003 175.477 9.38852C175.592 9.37238 175.702 9.30782 175.817 9.29168C175.932 9.27555 176.037 9.16796 176.158 9.1572C176.273 9.14106 176.398 9.22713 176.518 9.21099C176.633 9.20023 176.668 8.19965 176.788 8.18351C176.903 8.17275 177.068 8.69456 177.184 8.6838C177.299 8.67304 177.414 8.54394 177.534 8.53856C177.654 8.5278 177.769 8.474 177.889 8.46862C178.009 8.46324 178.16 9.13568 178.28 9.1303C178.395 9.12492 178.49 8.60311 178.61 8.59773C178.73 8.59235 178.85 8.60311 178.97 8.59773C179.09 8.59235 179.216 8.76449 179.336 8.76449C179.456 8.75911 179.576 8.52242 179.696 8.52242C179.816 8.52242 179.936 8.19427 180.056 8.19427C180.176 8.19427 180.307 8.83981 180.427 8.83981C180.547 8.83981 180.667 8.63539 180.787 8.63539C180.907 8.63539 181.037 8.12971 181.157 8.12971C181.278 8.12971 181.403 8.15661 181.523 8.16199C181.643 8.16737 181.758 8.46862 181.878 8.474C181.998 8.47938 182.133 8.17813 182.254 8.18351C182.374 8.18889 182.464 8.97967 182.584 8.98505C182.704 8.99043 182.829 8.8936 182.949 8.90436C183.069 8.90974 183.204 8.6838 183.325 8.69456C183.445 8.70532 183.535 9.11416 183.655 9.12492C183.775 9.13568 183.955 8.39331 184.075 8.40407C184.195 8.41483 184.311 8.54394 184.431 8.55469C184.551 8.56545 184.611 9.20561 184.731 9.22175C184.851 9.23789 185.056 8.49014 185.176 8.50628C185.297 8.52242 185.352 9.1034 185.472 9.11954C185.592 9.13568 185.687 9.35624 185.802 9.37238C185.922 9.38851 186.117 8.86132 186.237 8.88284C186.358 8.90436 186.418 9.31858 186.538 9.3401C186.658 9.36162 186.828 9.07113 186.943 9.09264C187.063 9.11416 187.183 9.13568 187.304 9.16258C187.424 9.18947 187.494 9.47459 187.614 9.50148C187.734 9.52838 187.844 9.57142 187.964 9.59832C188.084 9.62521 188.184 9.7328 188.299 9.7597C188.42 9.7866 188.545 9.7597 188.665 9.7866C188.785 9.81349 189.03 9.25403 189.15 9.2863C189.27 9.31858 189.28 9.80274 189.401 9.83501C189.521 9.86729 189.551 10.2385 189.671 10.2708C189.786 10.303 190.011 9.90495 190.126 9.93722C190.246 9.9695 190.477 9.56066 190.592 9.59832C190.707 9.63059 190.857 9.56604 190.972 9.59832C191.087 9.63597 191.012 10.3999 191.127 10.4375C191.242 10.4752 191.302 10.7226 191.418 10.7603C191.533 10.7979 191.718 10.5881 191.833 10.6258C191.948 10.6635 192.193 10.2492 192.308 10.2869C192.424 10.3245 192.569 10.2708 192.684 10.3084C192.799 10.3461 192.914 10.3837 193.029 10.4214C193.144 10.459 193.009 11.3628 193.124 11.4058C193.239 11.4435 193.525 10.8894 193.64 10.9271C193.755 10.9647 193.925 10.8195 194.04 10.8571C194.155 10.8948 194.13 11.4166 194.245 11.4542C194.36 11.4919 194.39 11.8254 194.506 11.8631C194.621 11.9007 195.011 10.9755 195.126 11.0131C195.241 11.0508 195.271 11.3843 195.386 11.4166C195.502 11.4542 195.707 11.1637 195.822 11.2014C195.937 11.2391 195.817 12.159 195.932 12.1912C196.047 12.2289 196.212 12.0836 196.327 12.1159C196.443 12.1482 196.553 12.2074 196.673 12.2396C196.788 12.2719 196.898 12.3311 197.018 12.3634C197.133 12.3957 197.433 11.6694 197.549 11.7017C197.664 11.734 197.774 11.7824 197.889 11.8147C198.004 11.8469 197.944 12.67 198.064 12.6969C198.179 12.7238 198.304 12.7507 198.419 12.7776C198.535 12.8045 198.675 12.7453 198.795 12.7722C198.91 12.7991 199.075 12.5893 199.195 12.6162C199.31 12.6431 199.47 12.4387 199.591 12.4602C199.706 12.4871 199.861 12.2881 199.981 12.315C200.101 12.3365 200.091 13.1165 200.211 13.138C200.331 13.1595 200.572 12.358 200.692 12.3795C200.807 12.401 200.777 13.4715 200.897 13.4877C201.012 13.5092 201.242 12.7184 201.362 12.7346C201.482 12.7507 201.548 13.1703 201.668 13.1864C201.788 13.2026 201.958 12.7507 202.078 12.7668C202.198 12.783 202.253 13.3909 202.373 13.4016C202.493 13.4178 202.649 13.0466 202.769 13.0627C202.889 13.0735 202.999 13.1542 203.124 13.1649C203.244 13.1757 203.389 12.8206 203.509 12.8314C203.63 12.8421 203.72 13.2671 203.84 13.2725C203.96 13.2833 204.065 13.6168 204.185 13.6222C204.305 13.6276 204.445 13.2402 204.566 13.2456C204.686 13.251 204.811 13.0788 204.931 13.0842C205.051 13.0896 205.156 13.5576 205.276 13.5576C205.396 13.563 205.511 13.8051 205.637 13.8105C205.757 13.8158 205.887 13.3263 206.007 13.3263C206.127 13.3263 206.247 13.7836 206.367 13.7836C206.487 13.7836 206.613 13.7889 206.733 13.7889C206.853 13.7889 206.973 13.45 207.098 13.45C207.218 13.45 207.333 13.0681 207.453 13.0681C207.573 13.0681 207.719 13.8804 207.844 13.875C207.964 13.8696 208.064 13.0842 208.184 13.0788C208.304 13.0735 208.434 13.3801 208.554 13.3747C208.675 13.3693 208.79 13.2241 208.91 13.2187C209.03 13.2133 209.16 13.4178 209.28 13.407C209.4 13.4016 209.52 13.3209 209.636 13.3102C209.756 13.2994 209.886 13.4016 210.006 13.3909C210.126 13.3801 210.246 13.3478 210.366 13.3371C210.486 13.3263 210.586 13.0681 210.707 13.0573C210.827 13.0466 210.982 13.4124 211.102 13.4016C211.222 13.3855 211.292 12.8744 211.407 12.8583C211.527 12.8421 211.713 13.4178 211.833 13.4016C211.953 13.3855 211.968 12.514 212.083 12.4925C212.203 12.4763 212.343 12.6377 212.458 12.6216C212.578 12.6001 212.784 13.1757 212.899 13.1542C213.019 13.1326 213.014 12.3311 213.129 12.3096C213.249 12.2881 213.494 13.0466 213.614 13.0197C213.735 12.9928 213.76 12.4602 213.88 12.4387C214 12.4118 214.095 12.2934 214.215 12.2665C214.335 12.2396 214.585 12.869 214.706 12.8421C214.826 12.8153 214.861 12.3957 214.976 12.3634C215.096 12.3311 215.221 12.3472 215.336 12.315C215.456 12.2827 215.546 12.159 215.661 12.1267C215.777 12.0944 215.967 12.3365 216.082 12.2988C216.197 12.2612 216.222 11.8954 216.337 11.8577C216.452 11.82 216.502 11.5672 216.617 11.5296C216.732 11.4919 216.988 11.9384 217.103 11.9007C217.218 11.8631 217.318 11.7716 217.428 11.7286C217.543 11.6856 217.533 11.2713 217.648 11.2283C217.764 11.1853 217.899 11.2175 218.014 11.1745C218.129 11.1315 218.234 11.0723 218.349 11.0293C218.464 10.9862 218.704 11.3198 218.82 11.2713C218.935 11.2229 219.035 11.153 219.15 11.1046C219.26 11.0562 219.205 10.5397 219.315 10.4967C219.425 10.4483 219.791 11.0938 219.901 11.0454C220.011 10.997 220.106 10.9055 220.221 10.8571C220.331 10.8087 220.351 10.5074 220.461 10.4644C220.571 10.416 220.822 10.7495 220.932 10.7065C221.042 10.6581 220.837 9.72204 220.947 9.67901C221.057 9.63059 221.392 10.217 221.507 10.1739C221.617 10.1309 221.747 10.1416 221.863 10.0986C221.973 10.0556 222.113 10.104 222.228 10.061C222.338 10.0179 222.213 9.23789 222.328 9.20023C222.438 9.1572 222.844 10.0394 222.959 9.9964C223.074 9.95874 223.134 9.76508 223.249 9.72742C223.364 9.68977 223.344 9.20023 223.459 9.16258C223.574 9.12492 223.749 9.31858 223.865 9.28093C223.98 9.24327 224.15 9.43155 224.265 9.39927C224.38 9.367 224.395 8.93664 224.51 8.90436C224.625 8.87208 224.725 8.75911 224.84 8.72684C224.956 8.69456 225.191 9.22175 225.311 9.18947C225.426 9.16258 225.471 8.79677 225.591 8.76987C225.706 8.74298 225.751 8.32338 225.872 8.29648C225.987 8.26958 226.127 8.35027 226.242 8.32876C226.357 8.30724 226.547 8.7376 226.667 8.71608C226.782 8.69456 226.822 8.15123 226.943 8.12971C227.058 8.1082 227.223 8.43097 227.343 8.41483C227.458 8.39869 227.608 8.64615 227.728 8.63001C227.843 8.61387 227.979 8.75374 228.099 8.7376C228.219 8.72146 228.334 8.73222 228.454 8.72146C228.574 8.7107 228.644 8.16737 228.764 8.15661C228.884 8.14585 229.02 8.38793 229.14 8.37717C229.255 8.36641 229.38 8.46324 229.5 8.45248C229.62 8.44173 229.71 7.97371 229.83 7.96833C229.951 7.96295 230.071 7.93067 230.191 7.92529C230.311 7.91991 230.436 8.11896 230.561 8.11358C230.681 8.1082 230.791 7.62942 230.911 7.62404C231.032 7.61866 231.162 7.96295 231.282 7.95757C231.402 7.95757 231.522 8.09744 231.647 8.09744C231.767 8.09744 231.887 8.49552 232.008 8.49552C232.128 8.49552 232.253 7.88764 232.373 7.88764C232.493 7.88764 232.613 8.07592 232.733 8.0813C232.853 8.0813 232.968 8.40407 233.089 8.40945C233.209 8.41483 233.349 7.76929 233.469 7.77467C233.589 7.78005 233.679 8.60311 233.799 8.60849C233.919 8.61387 234.045 8.46324 234.165 8.46862C234.285 8.474 234.445 7.73701 234.565 7.74239C234.685 7.74777 234.81 7.71549 234.93 7.72625C235.051 7.73701 235.131 8.33951 235.251 8.35027C235.371 8.36103 235.461 8.70532 235.581 8.71608C235.701 8.72684 235.816 8.77525 235.931 8.78601C236.052 8.79677 236.252 7.96833 236.372 7.98447C236.492 8.00061 236.537 8.69456 236.657 8.7107C236.777 8.72684 236.947 8.29648 237.068 8.318C237.188 8.33414 237.248 8.80753 237.368 8.82905C237.488 8.84519 237.623 8.7376 237.738 8.75911C237.858 8.78063 237.963 8.8667 238.084 8.88822C238.204 8.90974 238.454 8.10282 238.574 8.12433C238.694 8.14585 238.684 8.9474 238.804 8.96892C238.924 8.99043 239.175 8.2642 239.295 8.2911C239.415 8.318 239.38 9.17334 239.495 9.20023C239.615 9.22713 239.855 8.61925 239.97 8.64615C240.091 8.67304 240.106 9.20561 240.221 9.23251C240.341 9.25941 240.601 8.61387 240.721 8.64615C240.841 8.67842 240.926 8.85595 241.041 8.88822C241.162 8.9205 241.307 8.82905 241.427 8.86132C241.542 8.8936 241.687 8.83981 241.802 8.87208C241.917 8.90436 241.837 9.72204 241.952 9.75432C242.067 9.7866 242.223 9.67363 242.338 9.70591C242.453 9.74356 242.603 9.66287 242.713 9.69515C242.828 9.7328 242.813 10.2331 242.928 10.2708C243.043 10.3084 243.359 9.64135 243.474 9.67901C243.589 9.71666 243.674 9.86191 243.789 9.90495C243.904 9.9426 244.004 10.0394 244.114 10.0825C244.23 10.1255 244.415 9.9426 244.525 9.98564C244.64 10.0287 244.815 9.88343 244.93 9.92646C245.045 9.9695 245.045 10.373 245.16 10.416C245.276 10.459 245.191 11.11 245.306 11.153C245.421 11.196 245.761 10.5343 245.871 10.5774C245.986 10.6204 246.001 10.9647 246.111 11.0077C246.227 11.0508 246.507 10.5881 246.617 10.6312C246.732 10.6742 246.582 11.5134 246.697 11.5565C246.812 11.5995 247.112 11.0669 247.228 11.1046C247.343 11.1476 247.468 11.1422 247.583 11.1853C247.698 11.2283 247.803 11.2821 247.918 11.3251C248.033 11.3682 248.199 11.2337 248.314 11.2767C248.429 11.3198 248.399 11.8093 248.514 11.8469C248.629 11.89 248.784 11.7824 248.899 11.82C249.014 11.8577 249.224 11.5726 249.335 11.6102C249.45 11.6479 249.44 12.1105 249.555 12.1482C249.67 12.1859 249.915 11.734 250.03 11.7716C250.145 11.8093 250.115 12.3688 250.23 12.4064C250.346 12.4441 250.571 12.0352 250.686 12.0729C250.801 12.1052 250.701 13.0251 250.816 13.0573C250.931 13.0896 251.146 12.713 251.262 12.7453C251.377 12.7776 251.402 13.251 251.517 13.2833C251.632 13.3102 251.782 13.2133 251.902 13.2402C252.017 13.2671 252.122 13.3962 252.242 13.4231C252.358 13.45 252.563 12.9928 252.683 13.0143C252.798 13.0358 252.943 12.9013 253.058 12.9228C253.173 12.9444 253.268 13.1273 253.389 13.1488C253.504 13.1649 253.659 12.8744 253.779 12.8906C253.899 12.9067 253.964 13.364 254.084 13.3747C254.204 13.3909 254.35 13.1057 254.47 13.1165C254.59 13.1273 254.72 12.9067 254.84 12.9121C254.96 12.9228 255.025 13.832 255.145 13.8374C255.265 13.8427 255.411 13.251 255.531 13.2564C255.651 13.2617 255.766 13.2833 255.886 13.2886C256.006 13.2886 256.126 13.3424 256.246 13.3424C256.367 13.3424 256.492 13.8535 256.617 13.8535C256.737 13.8535 256.837 13.0251 256.957 13.0197C257.077 13.0143 257.222 13.6921 257.342 13.6867C257.463 13.6813 257.563 13.2671 257.683 13.2617C257.803 13.251 257.918 13.2133 258.038 13.2026C258.158 13.1918 258.263 13.0627 258.389 13.0466C258.509 13.0358 258.609 12.8637 258.729 12.8475C258.849 12.8314 258.969 12.869 259.089 12.8529C259.209 12.8368 259.324 12.8421 259.445 12.826C259.565 12.8099 259.79 13.52 259.91 13.4984C260.03 13.4769 260.09 13.0466 260.21 13.0251C260.33 13.0035 260.406 12.713 260.521 12.6861C260.641 12.6646 260.796 12.8583 260.916 12.8314C261.036 12.8045 261.141 12.713 261.256 12.6861C261.376 12.6592 261.411 12.2504 261.527 12.2235C261.647 12.1912 261.837 12.4979 261.952 12.4656C262.072 12.4333 262.257 12.6754 262.372 12.6431C262.493 12.6108 262.498 12.1374 262.613 12.1052C262.733 12.0675 263.013 12.6216 263.128 12.5786C263.248 12.5409 263.268 12.1751 263.383 12.1374C263.499 12.0944 263.659 12.1805 263.769 12.1428C263.884 12.0998 264.089 12.3096 264.204 12.2665C264.319 12.2181 264.164 11.422 264.274 11.3735C264.389 11.3251 264.755 11.9545 264.865 11.9061C264.98 11.8577 265.075 11.7555 265.185 11.7071C265.295 11.6533 265.145 10.9755 265.255 10.9217C265.365 10.8679 265.581 11.0615 265.686 11.0024C265.796 10.9432 265.796 10.6527 265.901 10.5989C266.011 10.5397 266.211 10.685 266.316 10.6258C266.426 10.5666 266.446 10.3299 266.552 10.2708C266.657 10.2116 267.142 10.8948 267.247 10.8302C267.352 10.7657 267.192 10.1793 267.297 10.1201C267.402 10.0556 267.477 9.93184 267.583 9.86729C267.688 9.80274 267.833 9.8135 267.938 9.74894C268.043 9.68439 268.218 9.75432 268.323 9.68977C268.428 9.62521 268.589 9.67363 268.694 9.60907C268.799 9.54452 268.584 8.87208 268.689 8.80753C268.794 8.74298 268.954 8.77525 269.059 8.71608C269.164 8.65153 269.615 9.27555 269.72 9.21637C269.825 9.1572 269.82 8.87208 269.925 8.81291C270.03 8.75374 270.09 8.59773 270.2 8.53856C270.305 8.47938 270.34 8.25344 270.45 8.19965C270.561 8.14585 270.611 7.95219 270.721 7.8984C270.831 7.8446 271.086 8.14047 271.201 8.08668C271.311 8.03288 271.366 7.8446 271.476 7.79619C271.587 7.74777 271.632 7.51107 271.742 7.46266C271.852 7.41424 272.152 7.90378 272.267 7.86074C272.377 7.8177 272.302 7.20444 272.417 7.16141C272.527 7.11837 272.853 7.75315 272.968 7.71011C273.083 7.67246 273.103 7.32817 273.223 7.29051C273.338 7.25286 273.458 7.24748 273.578 7.2152C273.694 7.18292 273.704 6.69877 273.824 6.66649C273.939 6.63422 274.064 6.60194 274.184 6.56966C274.299 6.54276 274.434 6.56966 274.554 6.54276C274.67 6.51587 274.76 6.31145 274.88 6.28455C274.995 6.25765 275.165 6.49973 275.285 6.47821C275.405 6.45669 275.515 6.35448 275.636 6.33296C275.756 6.31145 275.916 6.56966 276.036 6.54814C276.156 6.53201 276.231 6.1662 276.351 6.15006C276.471 6.13392 276.591 6.04785 276.712 6.03171C276.832 6.01557 276.957 5.9833 277.077 5.97254C277.197 5.96178 277.332 6.02095 277.452 6.0102C277.572 5.99944 277.703 6.03709 277.823 6.02633C277.943 6.01557 278.118 6.86015 278.238 6.85478C278.358 6.8494 278.453 6.35986 278.573 6.35448C278.694 6.3491 278.799 5.76812 278.919 5.76274C279.039 5.75736 279.174 5.90798 279.294 5.9026C279.414 5.9026 279.544 6.75794 279.665 6.75794C279.785 6.75794 279.905 6.22537 280.025 6.22537C280.145 6.22537 280.26 6.66111 280.38 6.66649C280.5 6.67187 280.635 6.15006 280.756 6.15544C280.876 6.16082 281.011 5.9564 281.131 5.96716C281.251 5.97254 281.356 6.32221 281.476 6.33296C281.596 6.34372 281.707 6.49435 281.827 6.50511C281.947 6.51587 282.122 5.92412 282.242 5.93488C282.362 5.94564 282.462 6.22 282.582 6.23075C282.702 6.24689 282.858 5.9833 282.978 5.99944C283.098 6.01557 283.138 6.71491 283.258 6.73105C283.378 6.74718 283.473 6.93547 283.593 6.95699C283.713 6.9785 283.834 6.98388 283.949 7.00002C284.069 7.02154 284.329 6.17158 284.444 6.1931C284.564 6.21462 284.519 7.20444 284.639 7.22596C284.76 7.25286 285.04 6.39752 285.155 6.42442C285.275 6.45131 285.365 6.64497 285.48 6.67187C285.6 6.69877 285.75 6.59118 285.866 6.61808C285.986 6.64497 285.971 7.29589 286.086 7.32817C286.206 7.36045 286.416 6.97312 286.531 7.0054C286.646 7.03768 286.686 7.41424 286.802 7.44652C286.917 7.4788 287.022 7.55411 287.142 7.59177C287.257 7.62404 287.452 7.34969 287.572 7.38734C287.687 7.425 287.838 7.34969 287.953 7.38734C288.068 7.425 288.228 7.31741 288.343 7.35507C288.458 7.39272 288.548 7.53259 288.663 7.57025C288.778 7.6079 288.899 7.64556 289.014 7.68322C289.129 7.72087 289.299 7.58101 289.414 7.62404C289.529 7.6617 289.659 7.6617 289.774 7.70473C289.89 7.74777 289.995 7.82308 290.11 7.86612C290.225 7.90916 290.135 8.59773 290.25 8.63539C290.365 8.67842 290.46 8.76987 290.575 8.81291C290.69 8.85595 290.765 9.01195 290.881 9.05499C290.996 9.09802 291.386 8.2911 291.501 8.33414C291.616 8.37717 291.481 9.16796 291.596 9.21099C291.711 9.25403 292.062 8.58697 292.172 8.63001C292.287 8.67304 292.247 9.16796 292.362 9.21099C292.477 9.25403 292.497 9.56604 292.612 9.60907C292.727 9.65211 293.003 9.20561 293.118 9.24865C293.233 9.29168 293.243 9.64673 293.353 9.68977C293.468 9.7328 293.668 9.51762 293.778 9.56066C293.893 9.60369 293.888 10.0072 293.999 10.0502C294.114 10.0932 294.384 9.65749 294.499 9.70053C294.614 9.74356 294.519 10.4268 294.629 10.4698C294.744 10.5128 294.975 10.1901 295.09 10.2331C295.205 10.2761 295.29 10.3999 295.405 10.4429C295.52 10.4859 295.71 10.2869 295.825 10.3299C295.941 10.373 295.9 10.9055 296.016 10.9486C296.131 10.9916 296.336 10.7388 296.451 10.7764C296.566 10.8195 296.676 10.884 296.791 10.9217C296.906 10.9593 296.987 11.1261 297.102 11.1637C297.217 11.2014 297.427 10.9324 297.542 10.9701C297.657 11.0077 297.772 11.0508 297.887 11.0938C298.003 11.1315 298.163 11.0185 298.278 11.0615C298.393 11.0992 298.538 11.0346 298.653 11.0777C298.768 11.1153 298.903 11.0831 299.019 11.1207C299.134 11.1584 299.049 11.9007 299.164 11.9384C299.279 11.9761 299.504 11.6156 299.624 11.6533C299.739 11.6909 299.849 11.7501 299.964 11.7878C300.08 11.8254 300.115 12.1643 300.23 12.202C300.345 12.2396 300.62 11.6802 300.735 11.7178C300.85 11.7555 300.91 12.0083 301.026 12.046C301.141 12.0783 301.136 12.6001 301.256 12.6323C301.371 12.6646 301.641 12.1052 301.761 12.1374C301.876 12.1697 301.966 12.3311 302.082 12.3634C302.197 12.3957 302.272 12.6001 302.392 12.6323C302.507 12.6646 302.702 12.3634 302.822 12.3957C302.937 12.4279 302.992 12.7399 303.113 12.7722C303.233 12.8045 303.218 13.4393 303.338 13.4662C303.458 13.4984 303.613 13.3747 303.733 13.407C303.853 13.4339 304.084 12.9336 304.204 12.9605C304.324 12.9874 304.324 13.5953 304.444 13.6222C304.564 13.6491 304.719 13.5092 304.839 13.5361C304.959 13.563 305.22 12.8798 305.34 12.9067C305.455 12.9336 305.53 13.1649 305.65 13.1918C305.765 13.2187 305.85 13.4178 305.965 13.4447C306.081 13.4715 306.256 13.1811 306.371 13.2026C306.486 13.2295 306.456 14.0633 306.571 14.0902C306.686 14.1117 306.906 13.5522 307.026 13.5791C307.142 13.6007 307.152 14.2516 307.267 14.2731C307.382 14.2946 307.662 13.3693 307.782 13.3962C307.897 13.4178 307.862 14.3592 307.977 14.3861C308.093 14.4076 308.293 13.9288 308.413 13.9503C308.528 13.9718 308.583 14.3914 308.703 14.413C308.818 14.4345 308.943 14.4291 309.063 14.4506C309.179 14.4721 309.294 14.5205 309.414 14.5421C309.529 14.5636 309.694 14.2623 309.814 14.2839C309.929 14.3054 310.059 14.257 310.18 14.2731C310.295 14.2946 310.385 14.5259 310.505 14.5421C310.62 14.5582 310.78 14.2892 310.9 14.3054C311.015 14.3215 311.11 14.5367 311.231 14.5528C311.346 14.569 311.501 14.3107 311.621 14.3269C311.741 14.343 311.816 14.6927 311.936 14.7088C312.056 14.725 312.167 14.7841 312.287 14.7949C312.407 14.811 312.587 14.2408 312.707 14.257C312.827 14.2731 312.947 14.2354 313.067 14.2462C313.188 14.2623 313.248 14.8326 313.368 14.8433C313.488 14.8541 313.658 14.3161 313.773 14.3323C313.893 14.343 313.968 14.8218 314.088 14.8326C314.209 14.8433 314.349 14.5851 314.469 14.5959C314.589 14.6066 314.644 15.392 314.764 15.4028C314.884 15.4135 315.059 14.6927 315.174 14.7035C315.295 14.7142 315.395 14.9617 315.515 14.9724C315.635 14.9832 315.725 15.4028 315.845 15.4082C315.965 15.4189 316.135 14.4883 316.256 14.4937C316.376 14.499 316.466 14.9401 316.586 14.9455C316.706 14.9509 316.821 14.9778 316.941 14.9832C317.061 14.9886 317.171 15.1338 317.292 15.1392C317.412 15.1446 317.527 15.2575 317.647 15.2629C317.767 15.2683 317.892 15.0101 318.012 15.0155C318.132 15.0208 318.258 14.7788 318.378 14.7788C318.498 14.7841 318.608 15.0424 318.728 15.0424C318.848 15.0477 318.968 14.8756 319.088 14.881C319.208 14.881 319.324 14.8164 319.444 14.8164C319.564 14.8164 319.679 15.1768 319.799 15.1768C319.919 15.1768 320.039 15.1984 320.159 15.1984C320.279 15.1984 320.4 14.7465 320.52 14.7465C320.64 14.7465 320.76 15.1446 320.88 15.1446C321 15.1446 321.115 14.6712 321.235 14.6712C321.356 14.6712 321.476 14.8648 321.596 14.8648C321.716 14.8648 321.831 14.6658 321.951 14.6604C322.071 14.655 322.206 15.4566 322.327 15.4512C322.447 15.4458 322.572 15.6072 322.692 15.6018C322.812 15.5964 322.917 15.1446 323.037 15.1392C323.157 15.1338 323.292 15.5158 323.413 15.5104C323.533 15.505 323.633 15.0585 323.753 15.0531C323.873 15.0477 323.978 14.7411 324.098 14.7357C324.218 14.7303 324.359 15.1876 324.479 15.1822C324.599 15.1768 324.694 14.768 324.814 14.7626C324.934 14.7572 325.064 14.9724 325.184 14.967C325.304 14.9563 325.41 14.7572 325.53 14.7465C325.65 14.7357 325.78 14.924 325.9 14.9133C326.02 14.9025 326.14 14.9186 326.26 14.9079C326.381 14.8971 326.501 14.9079 326.621 14.8971C326.741 14.8864 326.901 15.3974 327.021 15.3866C327.141 15.3759 327.181 14.4452 327.301 14.4345C327.422 14.4237 327.617 15.3006 327.737 15.2898C327.857 15.2791 327.922 14.6927 328.042 14.6766C328.162 14.6658 328.277 14.6066 328.398 14.5905C328.518 14.5743 328.633 14.5528 328.753 14.5367C328.873 14.5205 329.033 14.9133 329.153 14.8971C329.273 14.881 329.353 14.5205 329.474 14.5044C329.594 14.4883 329.734 14.655 329.854 14.6389C329.974 14.6228 330.129 14.9133 330.249 14.8971C330.369 14.881 330.495 14.9186 330.615 14.9025C330.735 14.8864 330.835 14.7411 330.955 14.725C331.075 14.7088 331.145 14.3323 331.265 14.3161C331.385 14.3 331.521 14.4237 331.641 14.4022C331.761 14.3861 331.846 14.1225 331.966 14.1009C332.086 14.0794 332.171 13.8481 332.291 13.8266C332.411 13.8051 332.622 14.4022 332.737 14.3807C332.857 14.3592 332.987 14.413 333.107 14.3914C333.227 14.3699 333.277 13.8965 333.397 13.875C333.518 13.8535 333.653 13.9449 333.773 13.918C333.893 13.8965 334.048 14.1063 334.168 14.0848C334.288 14.0633 334.293 13.364 334.413 13.3371C334.534 13.3155 334.639 13.208 334.754 13.1864C334.874 13.1649 335.004 13.2187 335.124 13.1972C335.244 13.1757 335.364 13.1649 335.484 13.138C335.605 13.1111 335.88 13.9342 336 13.9073" stroke="#EDD3D3" stroke-miterlimit="10"/>
</svg>
