<svg width="337" height="17" viewBox="0 0 337 17" fill="none" xmlns="http://www.w3.org/2000/svg">
<path d="M336 8.04158C335.892 8.06115 335.837 8.38419 335.729 8.40377C335.621 8.42334 335.503 8.35971 335.395 8.37929C335.287 8.39887 335.233 8.71701 335.124 8.73659C335.016 8.75617 334.817 8.20309 334.713 8.22267C334.605 8.24225 334.641 9.13304 334.533 9.15262C334.424 9.17219 334.28 8.95194 334.176 8.97152C334.068 8.9911 333.887 8.51634 333.779 8.53591C333.671 8.55549 333.639 9.06452 333.535 9.08409C333.427 9.10367 333.3 8.99599 333.197 9.01557C333.088 9.03515 333.002 9.17219 332.894 9.19177C332.786 9.21135 332.61 8.76106 332.506 8.78064C332.397 8.80022 332.276 8.69254 332.167 8.71212C332.059 8.73169 331.996 9.02047 331.887 9.04004C331.779 9.05962 331.702 9.27987 331.598 9.29945C331.49 9.31903 331.364 9.17709 331.255 9.19667C331.147 9.21624 331.124 9.81826 331.016 9.83295C330.908 9.85252 330.777 9.70079 330.673 9.71548C330.565 9.73506 330.452 9.71058 330.348 9.72527C330.24 9.73995 330.127 9.69101 330.018 9.71058C329.91 9.72527 329.806 9.75463 329.698 9.76932C329.589 9.784 329.517 10.0581 329.409 10.0728C329.301 10.0875 329.192 10.1021 329.088 10.1168C328.98 10.1315 328.872 10.1266 328.763 10.1413C328.655 10.156 328.542 10.1217 328.434 10.1413C328.325 10.156 328.176 9.82316 328.068 9.83784C327.96 9.85252 327.842 9.784 327.739 9.79868C327.63 9.81337 327.495 9.56864 327.386 9.58333C327.278 9.59801 327.197 9.81337 327.088 9.82805C326.98 9.84273 326.836 9.53438 326.727 9.54907C326.619 9.56375 326.587 10.249 326.479 10.2637C326.371 10.2783 326.262 10.2686 326.154 10.2832C326.046 10.2979 325.91 10.0336 325.802 10.0483C325.693 10.063 325.544 9.68611 325.436 9.70079C325.328 9.71548 325.238 9.89168 325.129 9.90636C325.021 9.92105 324.908 9.88189 324.8 9.89657C324.691 9.91126 324.637 10.4252 324.529 10.435C324.42 10.4496 324.317 10.4986 324.208 10.5133C324.1 10.528 323.942 10.0385 323.838 10.0532C323.73 10.0679 323.63 10.1658 323.527 10.1805C323.418 10.1902 323.341 10.5426 323.238 10.5573C323.129 10.5671 323.021 10.5769 322.913 10.5867C322.804 10.5965 322.723 10.8999 322.615 10.9097C322.506 10.9195 322.357 10.4692 322.249 10.479C322.141 10.4888 322.014 10.249 321.906 10.2588C321.797 10.2686 321.739 10.851 321.63 10.8608C321.522 10.8706 321.387 10.5573 321.283 10.5671C321.175 10.5769 321.035 10.1805 320.926 10.1902C320.818 10.2 320.746 10.6307 320.637 10.6405C320.529 10.6503 320.407 10.4545 320.299 10.4643C320.19 10.4741 320.123 11.0027 320.014 11.0125C319.906 11.0223 319.789 10.8804 319.68 10.8853C319.572 10.895 319.468 10.9734 319.364 10.9831C319.256 10.9929 319.12 10.5818 319.012 10.5916C318.904 10.6014 318.836 11.1838 318.728 11.1936C318.619 11.2034 318.511 11.1887 318.403 11.1985C318.294 11.2083 318.19 11.2425 318.082 11.2474C317.974 11.2572 317.856 11.0566 317.748 11.0663C317.64 11.0761 317.504 10.572 317.396 10.5769C317.288 10.5867 317.224 11.3698 317.116 11.3796C317.008 11.3845 316.854 10.5867 316.75 10.5965C316.642 10.6014 316.547 10.8657 316.443 10.8706C316.335 10.8755 316.236 11.0419 316.127 11.0468C316.019 11.0517 315.906 10.9685 315.802 10.9734C315.694 10.9782 315.613 11.5362 315.504 11.5411C315.396 11.546 315.261 10.895 315.152 10.8999C315.044 10.9048 314.954 11.2523 314.845 11.2572C314.737 11.2621 314.642 11.5754 314.534 11.5803C314.425 11.5852 314.313 11.4139 314.204 11.4187C314.096 11.4236 313.965 10.7825 313.861 10.7825C313.753 10.7874 313.676 11.6145 313.568 11.6194C313.459 11.6243 313.333 11.0125 313.229 11.0125C313.121 11.0174 313.017 11.1838 312.913 11.1887C312.805 11.1936 312.71 11.5949 312.602 11.5998C312.493 11.6047 312.38 11.3258 312.272 11.3258C312.164 11.3306 312.046 10.7629 311.938 10.7629C311.83 10.7678 311.726 10.7335 311.617 10.7335C311.509 10.7384 311.419 11.5362 311.31 11.5411C311.202 11.5411 311.098 11.6586 310.99 11.6586C310.882 11.6586 310.769 11.2181 310.665 11.2181C310.557 11.2181 310.448 10.7776 310.34 10.7776C310.236 10.7776 310.137 11.1887 310.033 11.1887C309.929 11.1887 309.816 10.9097 309.703 10.9097C309.599 10.9097 309.491 11.6635 309.383 11.6635C309.279 11.6635 309.166 11.0663 309.053 11.0663C308.945 11.0663 308.836 11.5313 308.724 11.5264C308.615 11.5264 308.516 11.0076 308.403 11.0076C308.295 11.0076 308.186 11.0859 308.078 11.081C307.97 11.0761 307.852 11.3943 307.744 11.3943C307.636 11.3894 307.518 11.6341 307.405 11.6292C307.297 11.6243 307.193 11.4383 307.085 11.4334C306.977 11.4285 306.882 11.1349 306.773 11.13C306.665 11.1251 306.57 10.9195 306.462 10.9097C306.354 10.8999 306.263 10.6699 306.155 10.6601C306.047 10.6503 305.875 11.5264 305.767 11.5166C305.658 11.5068 305.554 11.409 305.446 11.3992C305.338 11.3894 305.234 11.3111 305.126 11.2964C305.017 11.2817 304.904 11.3062 304.796 11.2915C304.688 11.2768 304.575 11.2915 304.467 11.2768C304.358 11.2621 304.272 11.0712 304.164 11.0517C304.056 11.037 304.029 10.4496 303.92 10.4301C303.812 10.4105 303.672 10.6454 303.564 10.6258C303.455 10.6063 303.369 10.4741 303.266 10.4496C303.157 10.4301 302.963 10.9097 302.855 10.8853C302.746 10.8608 302.652 10.7678 302.548 10.7384C302.44 10.7139 302.281 10.9293 302.173 10.8999C302.069 10.8706 302.029 10.5182 301.925 10.4888C301.821 10.4594 301.722 10.386 301.618 10.3567C301.514 10.3273 301.379 10.3958 301.275 10.3615C301.171 10.3273 301.189 9.85742 301.085 9.82316C300.981 9.7889 300.932 9.60291 300.828 9.56375C300.724 9.52459 300.394 10.2098 300.291 10.1658C300.187 10.1266 300.119 9.97488 300.015 9.93573C299.911 9.89168 300.002 9.33861 299.898 9.29456C299.799 9.25051 299.519 9.66653 299.419 9.61759C299.32 9.56864 299.293 9.3435 299.194 9.28966C299.094 9.24072 298.995 9.19177 298.9 9.14283C298.801 9.08899 298.869 8.71212 298.769 8.65828C298.674 8.60444 298.521 8.67785 298.426 8.61912C298.331 8.56039 298.155 8.65828 298.065 8.59954C297.97 8.53592 298.006 8.27161 297.916 8.20309C297.826 8.13946 297.559 8.35971 297.469 8.29119C297.379 8.22267 297.478 7.88985 297.392 7.81643C297.307 7.74301 297.284 7.60597 297.198 7.53255C297.112 7.45914 296.697 7.81643 296.616 7.73812C296.535 7.65981 296.494 7.52766 296.413 7.44445C296.336 7.36125 296.489 7.03332 296.413 6.95011C296.336 6.86691 295.776 7.26336 295.704 7.17526C295.641 7.09695 295.776 6.80328 295.699 6.71028C295.632 6.62708 295.803 6.31873 295.731 6.22084C295.663 6.13274 295.126 6.45088 295.058 6.35788C294.995 6.26978 295.469 5.7265 295.406 5.62861C295.343 5.53561 295.081 5.59924 295.022 5.50135C294.964 5.40346 295.185 5.12937 295.126 5.03149C295.072 4.9287 294.593 5.08532 294.548 4.98254C294.499 4.87486 294.332 4.81123 294.291 4.70356C294.25 4.59588 294.679 4.30711 294.652 4.19453C294.62 4.08196 294.575 4.00365 294.557 3.88618C294.553 3.7785 294.268 3.6953 294.268 3.57783C294.268 3.46037 294.043 3.28416 294.065 3.17159C294.083 3.05902 294.444 3.01497 294.485 2.9024C294.526 2.78982 294.833 2.82409 294.878 2.7213C294.927 2.61362 294.973 2.55 295.027 2.45211C295.085 2.34932 294.62 1.86477 294.679 1.77667C294.747 1.67878 295.325 2.08992 295.397 2.01161C295.478 1.9284 295.528 1.9284 295.614 1.86477C295.704 1.79625 295.424 1.05229 295.523 1.00335C295.623 0.954404 295.907 1.45853 296.006 1.43406C296.11 1.40469 296.187 1.56132 296.295 1.55642C296.399 1.55153 296.453 1.50258 296.562 1.51237C296.666 1.52216 296.729 1.54174 296.833 1.57111C296.936 1.59558 297.171 1.11103 297.275 1.15018C297.374 1.18934 297.51 1.18934 297.609 1.23828C297.704 1.28723 297.717 1.53195 297.812 1.59068C297.902 1.64942 297.799 2.01161 297.889 2.08013C297.975 2.14865 298.155 2.05076 298.241 2.12418C298.322 2.1976 298.336 2.33954 298.417 2.41785C298.494 2.49616 298.476 2.65278 298.553 2.74088C298.625 2.82409 298.656 2.92198 298.724 3.01008C298.792 3.09818 299.185 2.8975 299.252 2.9905C299.315 3.08349 299.058 3.41142 299.117 3.50931C299.176 3.6072 299.577 3.46526 299.632 3.56804C299.686 3.67083 299.401 3.9547 299.451 4.05749C299.496 4.16027 300.164 3.96939 300.205 4.07707C300.245 4.18474 299.654 4.54693 299.69 4.65951C299.722 4.77208 300.372 4.69866 300.394 4.80634C300.422 4.91891 300.115 5.11959 300.133 5.23705C300.151 5.35452 300.318 5.4622 300.322 5.57477C300.327 5.69224 299.844 5.79991 299.839 5.91738C299.835 6.03485 300.394 6.21594 300.376 6.32852C300.358 6.44598 300.074 6.51451 300.047 6.62708C300.02 6.73965 299.853 6.79838 299.812 6.90606C299.776 7.01374 299.591 7.03332 299.541 7.141C299.496 7.24378 299.875 7.59618 299.817 7.69407C299.762 7.79196 299.392 7.67939 299.329 7.77238C299.266 7.86537 299.302 8.03179 299.234 8.12478C299.167 8.21778 299.306 8.50165 299.23 8.58975C299.157 8.67785 298.733 8.39887 298.656 8.48697C298.58 8.57018 298.756 8.92747 298.674 9.01068C298.598 9.08899 298.191 8.75127 298.106 8.82958C298.024 8.903 298.309 9.47076 298.223 9.53928C298.137 9.61269 298.128 9.80358 298.038 9.8721C297.952 9.94062 297.474 9.40713 297.383 9.47076C297.293 9.53438 297.618 10.2832 297.523 10.3469C297.433 10.4105 297.293 10.4056 297.198 10.4643C297.108 10.5231 296.842 10.2734 296.747 10.3322C296.652 10.3909 296.643 10.6112 296.544 10.6699C296.449 10.7237 296.259 10.5916 296.164 10.6454C296.07 10.6993 295.984 10.7727 295.885 10.8265C295.79 10.8755 295.722 11.0027 295.623 11.0517C295.523 11.1006 295.546 11.4432 295.451 11.4922C295.352 11.5411 295.113 11.2474 295.013 11.2964C294.914 11.3404 294.882 11.5705 294.783 11.6145C294.684 11.6586 294.62 11.8103 294.521 11.8544C294.422 11.8984 294.313 11.9327 294.21 11.9767C294.11 12.0208 293.966 11.9473 293.862 11.9865C293.758 12.0257 293.681 12.1431 293.578 12.1823C293.474 12.2214 293.383 12.2998 293.28 12.3389C293.176 12.3781 293.022 12.2655 292.923 12.2998C292.819 12.3389 292.702 12.334 292.598 12.3683C292.494 12.4025 292.264 12.011 292.16 12.0452C292.056 12.0795 292.043 12.427 291.939 12.4613C291.835 12.4955 291.673 12.3242 291.569 12.3585C291.465 12.3927 291.505 12.9654 291.402 12.9948C291.298 13.029 291.167 12.9654 291.063 12.9997C290.959 13.029 290.806 12.8871 290.702 12.9165C290.598 12.9458 290.39 12.5592 290.287 12.5885C290.183 12.6179 290.129 12.8577 290.025 12.8871C289.916 12.9165 289.948 13.538 289.844 13.5625C289.736 13.5919 289.587 13.4304 289.483 13.4597C289.375 13.4891 289.244 13.4108 289.14 13.4402C289.032 13.4695 288.95 13.6164 288.846 13.6457C288.738 13.6702 288.657 13.8219 288.553 13.8464C288.445 13.8709 288.282 13.6115 288.178 13.6359C288.07 13.6604 287.971 13.7289 287.867 13.7534C287.754 13.7779 287.655 13.8415 287.555 13.866C287.442 13.8904 287.307 13.7485 287.208 13.7681C287.09 13.7926 287.041 14.1352 286.946 14.1547C286.824 14.1792 286.67 13.9296 286.585 13.9492C286.517 13.9639 286.436 14.2037 286.291 14.2282C286.192 14.2477 286.088 14.3456 285.971 14.3652C285.862 14.3848 285.673 13.8611 285.564 13.8758C285.456 13.8953 285.361 14.003 285.257 14.0177C285.149 14.0373 285.05 14.096 284.941 14.1107C284.833 14.1254 284.734 14.2037 284.625 14.2184C284.517 14.2331 284.377 13.9394 284.269 13.9541C284.16 13.9688 284.052 13.9345 283.944 13.9443C283.835 13.959 283.777 14.4729 283.668 14.4876C283.56 14.4974 283.398 13.8758 283.289 13.8904C283.181 13.9002 283.118 14.4974 283.009 14.5071C282.901 14.5169 282.775 14.2526 282.666 14.2624C282.558 14.2722 282.458 14.4631 282.35 14.468C282.242 14.4729 282.138 14.6197 282.03 14.6246C281.921 14.6295 281.799 14.3848 281.691 14.3946C281.583 14.3995 281.483 14.7176 281.375 14.7176C281.267 14.7225 281.149 14.4386 281.041 14.4435C280.933 14.4484 280.824 14.3848 280.716 14.3848C280.608 14.3848 280.504 14.933 280.395 14.933C280.287 14.933 280.174 14.6148 280.066 14.6148C279.957 14.6148 279.849 14.1596 279.741 14.1596C279.632 14.1596 279.52 14.7666 279.411 14.7666C279.303 14.7666 279.19 14.9623 279.082 14.9574C278.973 14.9574 278.865 14.7715 278.757 14.7666C278.648 14.7617 278.535 14.8155 278.427 14.8155C278.319 14.8106 278.215 14.6197 278.107 14.6148C277.998 14.6099 277.894 14.4631 277.786 14.4582C277.678 14.4533 277.551 14.8204 277.443 14.8155C277.335 14.8106 277.249 14.3848 277.14 14.375C277.032 14.3701 276.91 14.5561 276.802 14.5463C276.694 14.5365 276.603 14.2477 276.495 14.238C276.387 14.2282 276.247 14.6491 276.138 14.6393C276.03 14.6295 275.958 14.096 275.849 14.0862C275.741 14.0764 275.628 14.1352 275.52 14.1254C275.411 14.1156 275.29 14.2771 275.181 14.2624C275.073 14.2526 274.924 14.698 274.816 14.6882C274.707 14.6785 274.599 14.6442 274.49 14.6344C274.382 14.6246 274.319 14.1499 274.211 14.1401C274.102 14.1254 274.039 13.6947 273.931 13.6849C273.822 13.6702 273.673 14.0764 273.565 14.0618C273.457 14.0471 273.353 14.0079 273.244 13.9981C273.136 13.9834 273.077 13.5234 272.969 13.5087C272.861 13.494 272.671 14.189 272.563 14.1743C272.454 14.1596 272.378 13.8758 272.269 13.8611C272.161 13.8464 272.057 13.7877 271.953 13.773C271.845 13.7583 271.786 13.357 271.678 13.3423C271.57 13.3276 271.353 14.1743 271.245 14.1547C271.136 14.1401 271.028 14.1156 270.92 14.1009C270.811 14.0862 270.721 13.9492 270.613 13.9296C270.504 13.9149 270.414 13.7583 270.31 13.7387C270.202 13.7191 270.066 13.8953 269.962 13.8758C269.854 13.8562 269.804 13.4402 269.696 13.4206C269.588 13.401 269.484 13.3814 269.376 13.3618C269.267 13.3423 269.213 12.9507 269.109 12.936C269.001 12.9165 268.856 13.1612 268.748 13.1416C268.64 13.122 268.455 13.6408 268.346 13.6213C268.238 13.6017 268.247 12.8137 268.139 12.7941C268.03 12.7745 267.908 12.8479 267.805 12.8284C267.696 12.8088 267.57 12.9262 267.461 12.9067C267.353 12.8871 267.227 12.9899 267.118 12.9752C267.01 12.9556 266.875 13.122 266.766 13.1024C266.658 13.0829 266.504 13.357 266.401 13.3423C266.292 13.3227 266.188 13.2737 266.085 13.2542C265.976 13.2346 265.949 12.6913 265.841 12.6717C265.732 12.6522 265.656 12.4466 265.547 12.427C265.439 12.4074 265.349 12.2753 265.24 12.2557C265.132 12.2361 264.888 13.1073 264.78 13.0878C264.672 13.0682 264.631 12.613 264.523 12.5934C264.414 12.5738 264.301 12.5885 264.193 12.5689C264.085 12.5494 264.003 12.3732 263.895 12.3536C263.787 12.334 263.597 12.8626 263.489 12.843C263.38 12.8235 263.385 12.0746 263.277 12.055C263.168 12.0354 263.078 11.918 262.97 11.8984C262.861 11.8788 262.753 11.8641 262.645 11.8446C262.536 11.825 262.41 11.9473 262.301 11.9278C262.193 11.9082 262.067 12.0354 261.958 12.0208C261.85 12.0012 261.782 11.7075 261.674 11.6879C261.566 11.6684 261.439 11.7858 261.331 11.7663C261.222 11.7467 261.096 11.8788 260.988 11.8592C260.879 11.8397 260.726 12.1676 260.618 12.1529C260.509 12.1333 260.392 12.1921 260.283 12.1774C260.175 12.1627 260.135 11.6537 260.026 11.639C259.918 11.6243 259.742 12.1382 259.633 12.1187C259.525 12.104 259.439 11.918 259.331 11.9033C259.223 11.8886 259.128 11.7711 259.019 11.7565C258.911 11.7418 258.83 11.502 258.721 11.4873C258.613 11.4726 258.509 11.4432 258.401 11.4285C258.293 11.4139 258.144 11.7614 258.035 11.7467C257.927 11.732 257.828 11.6341 257.724 11.6194C257.615 11.6047 257.48 11.869 257.372 11.8544C257.263 11.8397 257.209 11.2964 257.105 11.2817C256.997 11.267 256.884 11.2915 256.776 11.2768C256.667 11.2621 256.555 11.2964 256.446 11.2866C256.338 11.2768 256.207 11.546 256.099 11.5362C255.99 11.5264 255.909 11.1985 255.801 11.1838C255.692 11.1691 255.602 10.9342 255.494 10.9244C255.385 10.9146 255.281 10.8657 255.173 10.8559C255.065 10.8461 254.934 11.1006 254.825 11.0908C254.717 11.081 254.631 10.7482 254.523 10.7384C254.415 10.7286 254.284 11.0174 254.175 11.0076C254.067 10.9978 253.945 11.1887 253.837 11.1789C253.728 11.1691 253.611 11.2621 253.503 11.2523C253.394 11.2425 253.295 11.0761 253.187 11.0712C253.078 11.0663 252.966 11.1593 252.853 11.1496C252.744 11.1398 252.618 11.4481 252.51 11.4383C252.401 11.4285 252.297 11.3796 252.189 11.3747C252.081 11.3698 251.977 11.2866 251.869 11.2817C251.76 11.2768 251.697 10.479 251.589 10.4741C251.48 10.4692 251.354 10.7482 251.246 10.7384C251.137 10.7335 251.038 10.5573 250.93 10.5475C250.821 10.5377 250.699 10.8167 250.591 10.8118C250.483 10.8069 250.383 10.621 250.275 10.6161C250.167 10.6112 250.027 11.2817 249.918 11.2719C249.81 11.267 249.72 10.8118 249.611 10.8069C249.503 10.802 249.404 10.5867 249.295 10.5818C249.187 10.5769 249.088 10.3762 248.975 10.3713C248.866 10.3664 248.722 11.2572 248.614 11.2523C248.505 11.2474 248.428 10.4056 248.32 10.4007C248.212 10.3958 248.076 11.0761 247.968 11.0761C247.86 11.0712 247.769 10.4937 247.661 10.4888C247.553 10.4839 247.444 10.386 247.336 10.3811C247.228 10.3762 247.101 10.895 246.993 10.8901C246.885 10.8853 246.772 10.9538 246.663 10.9489C246.555 10.944 246.456 10.6748 246.343 10.6699C246.234 10.665 246.135 10.3224 246.027 10.3175C245.918 10.3126 245.806 10.4839 245.697 10.479C245.589 10.4741 245.485 10.2588 245.377 10.2539C245.268 10.249 245.156 10.4545 245.047 10.4545C244.939 10.4496 244.83 10.4252 244.722 10.4252C244.614 10.4252 244.505 10.293 244.397 10.2881C244.289 10.2832 244.167 11.0566 244.059 11.0566C243.95 11.0566 243.846 10.6307 243.738 10.6307C243.63 10.6307 243.521 10.4741 243.413 10.4692C243.305 10.4692 243.192 10.7825 243.083 10.7825C242.975 10.7825 242.867 10.7139 242.758 10.7139C242.65 10.7139 242.542 10.3028 242.433 10.3028C242.325 10.3028 242.212 10.944 242.104 10.944C241.995 10.944 241.887 10.4643 241.779 10.4643C241.67 10.4643 241.562 10.9978 241.454 10.9978C241.345 10.9978 241.237 10.9097 241.129 10.9097C241.02 10.9097 240.912 10.8118 240.804 10.8118C240.695 10.8118 240.587 10.4545 240.474 10.4545C240.366 10.4545 240.257 10.8901 240.149 10.8901C240.041 10.8901 239.928 10.5818 239.819 10.5867C239.711 10.5867 239.607 11.0517 239.499 11.0517C239.391 11.0517 239.278 10.6258 239.169 10.6307C239.061 10.6307 238.957 11.0957 238.849 11.1006C238.74 11.1006 238.628 10.8999 238.519 10.8999C238.411 10.8999 238.303 11.0076 238.194 11.0125C238.086 11.0125 237.973 10.6944 237.865 10.6993C237.756 10.6993 237.648 10.851 237.54 10.8559C237.431 10.8608 237.318 10.5622 237.206 10.5622C237.097 10.5671 236.993 10.8412 236.885 10.8412C236.777 10.8412 236.664 10.7335 236.555 10.7384C236.447 10.7433 236.33 10.4056 236.221 10.4056C236.113 10.4105 236.023 11.1006 235.914 11.1055C235.806 11.1104 235.693 11.0174 235.585 11.0223C235.477 11.0272 235.364 10.895 235.255 10.8999C235.147 10.9048 235.025 10.5231 234.917 10.528C234.808 10.5329 234.718 11.0615 234.605 11.0663C234.492 11.0712 234.366 10.3909 234.258 10.3958C234.149 10.4007 234.045 10.5818 233.937 10.5867C233.829 10.5916 233.72 10.6258 233.612 10.6307C233.504 10.6356 233.395 10.7091 233.287 10.7139C233.179 10.7188 233.057 10.4203 232.948 10.4252C232.84 10.4301 232.745 10.7825 232.637 10.7923C232.529 10.7972 232.411 10.5671 232.303 10.5769C232.195 10.5818 232.091 10.7188 231.982 10.7237C231.874 10.7286 231.752 10.4301 231.644 10.435C231.535 10.4399 231.454 11.0712 231.346 11.0761C231.237 11.081 231.12 10.9342 231.012 10.9391C230.903 10.944 230.809 11.1838 230.696 11.1936C230.583 11.2034 230.484 11.3209 230.375 11.3258C230.267 11.3306 230.127 10.7433 230.019 10.7531C229.91 10.758 229.806 10.8853 229.698 10.895C229.59 10.8999 229.486 11.0272 229.377 11.037C229.269 11.0419 229.134 10.6063 229.025 10.6161C228.917 10.6258 228.809 10.6405 228.7 10.6503C228.592 10.6601 228.515 11.1936 228.407 11.2034C228.299 11.2132 228.186 11.174 228.077 11.1789C227.969 11.1887 227.852 11.0908 227.743 11.0957C227.635 11.1055 227.536 11.2621 227.427 11.267C227.319 11.2768 227.174 10.7335 227.066 10.7433C226.958 10.7531 226.854 10.8559 226.746 10.8657C226.637 10.8755 226.56 11.3747 226.452 11.3845C226.344 11.3943 226.253 11.6439 226.145 11.6537C226.037 11.6635 225.874 10.9048 225.766 10.9146C225.658 10.9244 225.572 11.2621 225.463 11.2719C225.355 11.2817 225.251 11.36 225.143 11.3698C225.035 11.3796 224.935 11.5068 224.827 11.5166C224.719 11.5264 224.601 11.3943 224.493 11.409C224.384 11.4187 224.303 11.7663 224.195 11.7809C224.087 11.7907 223.96 11.5558 223.852 11.5656C223.743 11.5754 223.603 11.1887 223.495 11.1985C223.387 11.2083 223.319 11.7124 223.211 11.7222C223.102 11.732 222.944 11.1593 222.836 11.1691C222.728 11.1789 222.692 12.0306 222.583 12.0403C222.475 12.0501 222.362 12.011 222.254 12.0257C222.145 12.0354 222.005 11.6782 221.897 11.6879C221.789 11.6977 221.689 11.7907 221.581 11.8054C221.473 11.8152 221.328 11.409 221.22 11.4236C221.112 11.4334 221.021 11.6292 220.913 11.639C220.805 11.6488 220.696 11.6879 220.588 11.6977C220.479 11.7075 220.371 11.7124 220.263 11.7271C220.154 11.7369 220.037 11.6488 219.929 11.6635C219.82 11.6782 219.694 11.5068 219.586 11.5166C219.477 11.5313 219.387 11.7467 219.279 11.7565C219.17 11.7711 219.08 11.9522 218.972 11.9669C218.863 11.9816 218.796 12.3976 218.687 12.4074C218.579 12.4221 218.394 11.6488 218.285 11.6635C218.177 11.6782 218.096 11.9767 217.988 11.9914C217.879 12.0061 217.802 12.3193 217.694 12.334C217.586 12.3487 217.486 12.427 217.378 12.4417C217.27 12.4564 217.089 11.7467 216.981 11.7614C216.872 11.776 216.764 11.8201 216.656 11.8348C216.547 11.8495 216.475 12.2459 216.367 12.2557C216.258 12.2704 216.191 12.7011 216.082 12.7158C215.974 12.7305 215.807 12.1725 215.699 12.1823C215.59 12.197 215.496 12.3683 215.387 12.383C215.279 12.3976 215.157 12.29 215.049 12.3046C214.94 12.3193 214.809 12.1333 214.701 12.148C214.593 12.1627 214.543 12.7549 214.435 12.7696C214.326 12.7843 214.177 12.4074 214.069 12.4221C213.961 12.4368 213.866 12.5738 213.757 12.5885C213.649 12.6032 213.595 13.1122 213.487 13.1269C213.378 13.1416 213.202 12.5249 213.094 12.5396C212.985 12.5543 212.846 12.2851 212.737 12.2998C212.629 12.3144 212.52 12.3487 212.412 12.3585C212.304 12.3732 212.286 13.2003 212.177 13.215C212.069 13.2297 211.929 12.9654 211.821 12.9801C211.712 12.9948 211.622 13.1759 211.514 13.1905C211.405 13.2052 211.256 12.8626 211.148 12.8773C211.04 12.892 210.913 12.7549 210.805 12.7696C210.697 12.7843 210.575 12.6864 210.466 12.7011C210.358 12.7158 210.326 13.3961 210.218 13.4108C210.11 13.4255 209.983 13.2982 209.875 13.3129C209.767 13.3276 209.609 12.9262 209.5 12.9409C209.392 12.9556 209.338 13.4353 209.229 13.4499C209.121 13.4646 209.008 13.4499 208.9 13.4646C208.792 13.4793 208.656 13.2689 208.548 13.2835C208.439 13.2982 208.327 13.2737 208.218 13.2884C208.11 13.3031 208.038 13.6261 207.929 13.6457C207.821 13.6604 207.645 13.1171 207.537 13.1318C207.428 13.1465 207.41 13.9198 207.302 13.9345C207.193 13.9492 207.063 13.7877 206.959 13.8023C206.85 13.817 206.692 13.4059 206.584 13.4206C206.476 13.4353 206.345 13.2591 206.236 13.2786C206.128 13.2933 206.047 13.5234 205.938 13.538C205.83 13.5527 205.753 13.8366 205.649 13.8562C205.541 13.8709 205.437 13.9296 205.329 13.9443C205.221 13.959 205.144 14.2428 205.04 14.2624C204.932 14.2771 204.76 13.7632 204.652 13.7779C204.543 13.7926 204.449 13.9051 204.34 13.9247C204.232 13.9394 204.101 13.7779 203.997 13.7926C203.889 13.8072 203.817 14.1009 203.708 14.1156C203.6 14.1303 203.519 14.3701 203.415 14.3897C203.306 14.4044 203.216 14.5659 203.112 14.5855C203.004 14.6001 202.851 14.2282 202.742 14.2477C202.634 14.2624 202.467 13.817 202.363 13.8317C202.255 13.8464 202.182 14.1303 202.074 14.145C201.966 14.1596 201.916 14.6491 201.812 14.6638C201.704 14.6785 201.614 14.84 201.51 14.8547C201.401 14.8693 201.23 14.3701 201.121 14.3848C201.013 14.3995 200.887 14.282 200.778 14.2967C200.67 14.3114 200.611 14.7323 200.503 14.747C200.395 14.7617 200.205 14.1254 200.097 14.145C199.988 14.1596 199.975 14.9379 199.866 14.9525C199.758 14.9672 199.578 14.3897 199.469 14.4044C199.361 14.419 199.234 14.2918 199.126 14.3065C199.018 14.3212 199.009 15.1581 198.9 15.1777C198.792 15.1924 198.688 15.2413 198.58 15.256C198.471 15.2707 198.327 14.9917 198.223 15.0064C198.115 15.0211 197.943 14.4827 197.835 14.4974C197.727 14.512 197.668 14.9574 197.56 14.9721C197.451 14.9868 197.343 14.9819 197.235 14.9966C197.126 15.0113 197.031 15.1532 196.923 15.163C196.815 15.1777 196.675 14.8791 196.566 14.8938C196.458 14.9085 196.399 15.3735 196.291 15.3882C196.183 15.4028 196.07 15.3882 195.966 15.4028C195.858 15.4175 195.758 15.5154 195.65 15.5301C195.542 15.5448 195.397 15.2071 195.293 15.2217C195.185 15.2364 195.05 14.9281 194.941 14.9428C194.833 14.9525 194.788 15.6525 194.679 15.6622C194.571 15.672 194.467 15.7357 194.359 15.7503C194.25 15.7601 194.088 15.163 193.984 15.1728C193.876 15.1826 193.781 15.3637 193.673 15.3735C193.564 15.3833 193.438 15.1336 193.33 15.1434C193.221 15.1532 193.108 15.0602 193 15.07C192.892 15.0798 192.824 15.6818 192.716 15.6916C192.607 15.7014 192.463 15.0651 192.354 15.07C192.246 15.0798 192.151 15.2609 192.043 15.2658C191.935 15.2707 191.844 15.6573 191.74 15.6622C191.632 15.6671 191.524 15.721 191.42 15.7259C191.312 15.7308 191.19 15.3539 191.081 15.3588C190.973 15.3637 190.865 15.2805 190.756 15.2854C190.648 15.2903 190.558 16 190.449 16C190.341 16.0049 190.224 15.579 190.115 15.5839C190.007 15.5839 189.899 15.5888 189.79 15.5888C189.682 15.5888 189.573 15.2658 189.465 15.2658C189.357 15.2658 189.253 15.2903 189.145 15.2903C189.036 15.2903 188.932 15.1043 188.829 15.1043C188.72 15.1043 188.612 15.3539 188.504 15.3539C188.395 15.3539 188.278 15.7552 188.174 15.7552C188.066 15.7503 187.971 15.3833 187.863 15.3784C187.754 15.3735 187.632 15.8189 187.524 15.814C187.416 15.8091 187.33 15.3343 187.221 15.3294C187.113 15.3245 186.987 15.7014 186.878 15.6965C186.77 15.6916 186.662 15.7063 186.553 15.6965C186.445 15.6867 186.364 15.2756 186.255 15.2658C186.147 15.256 186.021 15.535 185.912 15.5252C185.804 15.5154 185.687 15.6476 185.578 15.6378C185.47 15.628 185.411 15.026 185.307 15.0162C185.199 15.0064 185.05 15.4811 184.942 15.4665C184.833 15.4567 184.752 15.1728 184.644 15.1581C184.535 15.1483 184.432 15.1043 184.328 15.0896C184.219 15.0749 184.057 15.6084 183.948 15.5937C183.845 15.579 183.8 14.9721 183.696 14.9574C183.592 14.9428 183.493 14.8742 183.384 14.8595C183.276 14.8449 183.154 14.9721 183.046 14.9574C182.937 14.9428 182.806 15.1532 182.698 15.1385C182.59 15.1239 182.459 15.3049 182.35 15.2903C182.247 15.2756 182.206 14.7323 182.102 14.7176C181.994 14.7029 181.849 14.977 181.741 14.9623C181.633 14.9428 181.466 15.3588 181.357 15.3392C181.249 15.3196 181.262 14.4582 181.154 14.4386C181.046 14.419 180.888 14.7372 180.779 14.7176C180.671 14.698 180.517 14.977 180.414 14.9574C180.305 14.9379 180.192 14.9525 180.084 14.933C179.976 14.9134 179.872 14.8547 179.768 14.8351C179.66 14.8155 179.673 14.0666 179.569 14.0471C179.461 14.0275 179.348 14.0471 179.244 14.0275C179.136 14.0079 179.019 14.0666 178.91 14.0471C178.802 14.0226 178.712 13.9149 178.608 13.8953C178.5 13.8709 178.229 14.7372 178.125 14.7127C178.016 14.6882 178.003 14.189 177.895 14.1645C177.786 14.1401 177.66 14.2233 177.556 14.1988C177.448 14.1743 177.335 14.189 177.231 14.1645C177.123 14.1401 177.145 13.5087 177.041 13.4793C176.933 13.4548 176.73 13.8807 176.626 13.8562C176.518 13.8268 176.418 13.7877 176.315 13.7583C176.211 13.7289 176.138 13.5429 176.035 13.5185C175.931 13.4891 175.777 13.6653 175.673 13.6359C175.57 13.6066 175.394 13.8611 175.29 13.8317C175.186 13.8023 175.222 13.2003 175.118 13.171C175.014 13.1416 174.865 13.2835 174.762 13.2542C174.658 13.2199 174.432 13.6359 174.333 13.6017C174.229 13.5674 174.125 13.5136 174.021 13.4793C173.917 13.4451 173.886 13.1465 173.782 13.1122C173.678 13.078 173.498 13.3031 173.394 13.2689C173.29 13.2346 173.389 12.52 173.285 12.4808C173.181 12.4417 173.051 12.5004 172.951 12.4613C172.847 12.4221 172.68 12.5885 172.581 12.5494C172.477 12.5102 172.486 12.1284 172.387 12.0893C172.283 12.0501 171.972 12.6619 171.868 12.6228C171.764 12.5836 171.696 12.4417 171.592 12.4025C171.489 12.3634 171.57 11.7858 171.471 11.7467C171.367 11.7075 171.042 12.3193 170.942 12.2753C170.838 12.2312 170.911 11.7075 170.807 11.6684C170.708 11.6243 170.667 11.4139 170.568 11.3698C170.464 11.3258 170.197 11.7516 170.094 11.7075C169.99 11.6635 170.012 11.2817 169.913 11.2377C169.814 11.1936 169.615 11.4187 169.511 11.3747C169.412 11.3306 169.308 11.2915 169.209 11.2474C169.109 11.2034 169.091 10.9342 168.992 10.8901C168.893 10.8461 168.798 10.7874 168.694 10.7433C168.595 10.6993 168.518 10.5867 168.419 10.5426C168.319 10.4986 168.198 10.5084 168.098 10.4643C167.999 10.4203 167.714 10.895 167.615 10.8559C167.516 10.8167 167.552 10.3762 167.453 10.3322C167.353 10.293 167.353 9.95041 167.249 9.91126C167.15 9.8721 166.92 10.2147 166.816 10.1756C166.717 10.1364 166.487 10.4937 166.387 10.4545C166.288 10.4154 166.157 10.4741 166.058 10.4399C165.958 10.4056 166.053 9.71058 165.949 9.67143C165.845 9.63717 165.796 9.40713 165.692 9.37287C165.588 9.33861 165.421 9.52949 165.317 9.49523C165.213 9.46097 165.001 9.84273 164.897 9.81337C164.794 9.784 164.672 9.83784 164.568 9.80847C164.464 9.77911 164.365 9.75463 164.261 9.72527C164.157 9.6959 164.234 8.86874 164.125 8.83937C164.022 8.8149 163.796 9.3386 163.692 9.30924C163.588 9.28477 163.448 9.4316 163.344 9.41202C163.241 9.38755 163.218 8.91768 163.114 8.89321C163.01 8.87363 162.947 8.57507 162.843 8.55549C162.74 8.53592 162.487 9.41692 162.383 9.39734C162.279 9.37776 162.216 9.08409 162.112 9.06452C162.008 9.04494 161.864 9.33371 161.755 9.31903C161.652 9.30434 161.652 8.4576 161.543 8.44292C161.439 8.42824 161.308 8.57997 161.2 8.56528C161.096 8.5506 160.988 8.51634 160.88 8.50165C160.771 8.48697 160.667 8.45271 160.559 8.43803C160.451 8.42824 160.284 9.12325 160.175 9.11346C160.071 9.10367 159.968 9.0743 159.859 9.06452C159.755 9.05473 159.701 8.30588 159.593 8.29609C159.485 8.2863 159.376 8.2863 159.268 8.27651C159.16 8.26672 159.047 8.34503 158.938 8.34014C158.83 8.33524 158.713 8.5506 158.604 8.54081C158.496 8.53591 158.383 8.74148 158.27 8.73659C158.162 8.73169 158.049 8.92747 157.941 8.92258C157.832 8.91768 157.742 8.21778 157.629 8.21288C157.521 8.20799 157.394 8.96663 157.286 8.96173C157.178 8.96173 157.083 7.99263 156.975 7.98774C156.866 7.98774 156.749 8.7268 156.641 8.7268C156.532 8.7268 156.424 8.35971 156.315 8.35971C156.207 8.35971 156.099 8.79043 155.99 8.79043C155.882 8.79043 155.765 8.25204 155.656 8.25204C155.548 8.25204 155.444 8.60444 155.336 8.60933C155.227 8.61423 155.115 8.5506 155.006 8.55549C154.898 8.56039 154.803 8.8981 154.695 8.903C154.586 8.90789 154.46 8.53591 154.352 8.54081C154.243 8.5457 154.117 8.25693 154.009 8.26183C153.9 8.26672 153.81 8.6387 153.702 8.64359C153.593 8.65338 153.494 8.82469 153.39 8.83448C153.282 8.84427 153.142 8.43313 153.033 8.44292C152.925 8.45271 152.794 8.24714 152.686 8.25693C152.577 8.26672 152.51 8.7268 152.401 8.73659C152.293 8.75127 152.14 8.34993 152.036 8.36461C151.927 8.37929 151.815 8.38419 151.706 8.39887C151.598 8.41355 151.521 8.73169 151.413 8.75127C151.304 8.76595 151.241 9.12325 151.133 9.13793C151.025 9.15262 150.812 8.43803 150.709 8.45271C150.6 8.47229 150.596 9.19667 150.487 9.21135C150.379 9.23093 150.23 8.97152 150.122 8.9911C150.013 9.01068 149.928 9.15751 149.819 9.17709C149.711 9.19667 149.571 9.03025 149.463 9.05473C149.354 9.0792 149.259 9.1673 149.151 9.18688C149.043 9.21135 148.916 9.13793 148.812 9.1624C148.704 9.18688 148.6 9.23093 148.496 9.26029C148.388 9.28477 148.329 9.52949 148.226 9.55886C148.117 9.58333 147.937 9.27498 147.833 9.29945C147.724 9.32882 147.72 9.79868 147.616 9.82805C147.512 9.85742 147.282 9.36308 147.178 9.39244C147.074 9.42181 147.151 10.2098 147.047 10.2441C146.943 10.2734 146.799 10.1413 146.695 10.1707C146.591 10.2 146.352 9.71058 146.244 9.73995C146.14 9.77421 146.217 10.4986 146.113 10.528C146.009 10.5622 145.72 9.90147 145.616 9.93573C145.512 9.96999 145.53 10.4545 145.427 10.4888C145.323 10.5231 145.242 10.6405 145.138 10.6748C145.034 10.7091 144.763 10.156 144.659 10.1902C144.555 10.2245 144.551 10.6063 144.447 10.6405C144.343 10.6748 144.226 10.6699 144.122 10.7042C144.018 10.7384 143.937 10.8559 143.833 10.8901C143.729 10.9244 143.553 10.7091 143.449 10.7433C143.345 10.7776 143.327 11.1153 143.228 11.1496C143.124 11.1838 143.079 11.4139 142.975 11.453C142.871 11.4873 142.641 11.081 142.537 11.1153C142.434 11.1496 142.343 11.2328 142.239 11.267C142.136 11.3013 142.127 11.6782 142.023 11.7124C141.919 11.7467 141.797 11.7124 141.693 11.7418C141.589 11.776 141.49 11.8201 141.386 11.8544C141.282 11.8886 141.084 11.5656 140.98 11.5998C140.876 11.6341 140.781 11.6879 140.673 11.7222C140.569 11.7516 140.578 12.2263 140.474 12.2606C140.37 12.29 140.104 11.6684 140 11.7026C139.896 11.732 139.806 11.8054 139.698 11.8348C139.594 11.8641 139.544 12.1333 139.44 12.1627C139.337 12.1921 139.151 11.8592 139.043 11.8886C138.939 11.918 139.021 12.7892 138.912 12.8137C138.808 12.8381 138.574 12.2704 138.47 12.2949C138.366 12.3193 138.249 12.29 138.145 12.3193C138.041 12.3438 137.919 12.2802 137.811 12.3046C137.707 12.3291 137.729 13.0486 137.621 13.0682C137.517 13.0927 137.255 12.241 137.147 12.2655C137.043 12.2851 136.962 12.4515 136.854 12.4711C136.75 12.4906 136.709 12.936 136.601 12.9556C136.492 12.9752 136.357 12.7794 136.249 12.799C136.14 12.8186 136.009 12.6277 135.901 12.6473C135.797 12.6619 135.739 13.0486 135.63 13.0682C135.526 13.0829 135.427 13.1759 135.319 13.1905C135.21 13.2052 135.048 12.706 134.94 12.7207C134.831 12.7354 134.759 13.0584 134.651 13.0731C134.542 13.0878 134.47 13.4597 134.362 13.4744C134.253 13.4842 134.136 13.401 134.028 13.4108C133.919 13.4206 133.779 13.0143 133.671 13.0241C133.563 13.0339 133.49 13.5234 133.382 13.5332C133.274 13.5429 133.147 13.2395 133.034 13.2444C132.926 13.2542 132.804 13.0143 132.696 13.0192C132.587 13.0241 132.475 12.892 132.366 12.8969C132.258 12.9018 132.154 12.8871 132.041 12.892C131.933 12.8969 131.843 13.3814 131.734 13.3863C131.626 13.3912 131.513 13.1612 131.405 13.1661C131.296 13.171 131.188 13.078 131.08 13.078C130.971 13.078 130.867 13.5038 130.759 13.5038C130.651 13.5038 130.542 13.5234 130.43 13.5234C130.321 13.5234 130.213 13.3374 130.105 13.3374C129.996 13.3374 129.883 13.7681 129.77 13.7681C129.662 13.7681 129.558 13.4548 129.445 13.4499C129.333 13.4451 129.229 13.3129 129.116 13.308C129.003 13.3031 128.908 12.936 128.8 12.9311C128.687 12.9262 128.561 13.4744 128.452 13.4695C128.344 13.4646 128.24 13.2884 128.132 13.2835C128.023 13.2786 127.929 12.9801 127.82 12.9752C127.712 12.9703 127.567 13.5527 127.459 13.5429C127.351 13.5332 127.287 12.7843 127.179 12.7745C127.071 12.7647 126.953 12.9018 126.845 12.892C126.737 12.8822 126.574 13.5478 126.466 13.538C126.358 13.5283 126.24 13.5576 126.132 13.5429C126.023 13.5332 125.965 12.9801 125.856 12.9654C125.748 12.9507 125.671 12.6375 125.563 12.6228C125.455 12.6081 125.351 12.5641 125.247 12.5494C125.139 12.5347 124.935 13.2835 124.832 13.2689C124.723 13.2542 124.696 12.6179 124.588 12.5983C124.48 12.5787 124.317 12.9654 124.209 12.9458C124.1 12.9262 124.055 12.4955 123.951 12.476C123.843 12.4564 123.721 12.5494 123.613 12.5298C123.504 12.5102 123.41 12.4221 123.306 12.4025C123.197 12.3781 122.954 13.1073 122.845 13.0829C122.737 13.0584 122.764 12.334 122.656 12.3095C122.547 12.2851 122.299 12.936 122.195 12.9116C122.087 12.8871 122.141 12.1089 122.037 12.0795C121.929 12.0501 121.694 12.5934 121.586 12.5641C121.477 12.5347 121.482 12.0501 121.378 12.0208C121.27 11.9914 121.012 12.5689 120.909 12.5347C120.8 12.5004 120.728 12.334 120.624 12.2998C120.52 12.2655 120.38 12.3438 120.277 12.3095C120.173 12.2753 120.042 12.3144 119.938 12.2802C119.834 12.2459 119.938 11.5068 119.834 11.4726C119.73 11.4334 119.586 11.5362 119.482 11.4971C119.378 11.4579 119.243 11.5264 119.139 11.4873C119.035 11.4481 119.071 10.9929 118.967 10.9489C118.864 10.9097 118.548 11.502 118.448 11.4579C118.344 11.4187 118.277 11.2817 118.173 11.2377C118.069 11.1936 117.988 11.1006 117.884 11.0615C117.78 11.0174 117.608 11.174 117.509 11.13C117.405 11.0859 117.243 11.2083 117.143 11.1642C117.04 11.1202 117.058 10.7531 116.954 10.7091C116.855 10.665 116.949 10.0728 116.85 10.0336C116.751 9.98957 116.421 10.5769 116.322 10.5329C116.223 10.4888 116.218 10.1756 116.119 10.1315C116.019 10.0875 115.753 10.5035 115.654 10.4594C115.554 10.4154 115.703 9.65674 115.6 9.61759C115.5 9.57843 115.216 10.0581 115.117 10.014C115.017 9.97488 114.9 9.97488 114.801 9.93573C114.697 9.89657 114.602 9.84763 114.498 9.80847C114.394 9.76932 114.245 9.89168 114.141 9.85252C114.038 9.81337 114.065 9.36797 113.961 9.33371C113.857 9.29945 113.717 9.39244 113.613 9.35818C113.509 9.32392 113.324 9.58822 113.22 9.55396C113.117 9.5197 113.121 9.09878 113.013 9.06941C112.909 9.03515 112.692 9.45118 112.588 9.42181C112.485 9.39244 112.498 8.87853 112.394 8.84916C112.29 8.81979 112.096 9.19177 111.988 9.1673C111.884 9.13793 111.952 8.30098 111.844 8.27651C111.74 8.25204 111.555 8.59954 111.446 8.57507C111.342 8.5506 111.311 8.11499 111.202 8.09541C111.099 8.07094 110.963 8.16394 110.855 8.14436C110.751 8.12478 110.656 8.00731 110.548 7.98774C110.444 7.96816 110.268 8.38908 110.16 8.3695C110.056 8.34993 109.929 8.47718 109.821 8.4576C109.717 8.44292 109.627 8.27161 109.519 8.25693C109.41 8.24225 109.27 8.51144 109.162 8.49676C109.054 8.48208 108.99 8.06605 108.882 8.05136C108.774 8.03668 108.638 8.29609 108.53 8.2863C108.422 8.27651 108.3 8.47718 108.187 8.4625C108.078 8.45271 108.033 7.62555 107.925 7.61576C107.817 7.60597 107.668 8.13946 107.559 8.12968C107.451 8.11989 107.347 8.09541 107.239 8.09052C107.13 8.08562 107.027 8.03179 106.914 8.02689C106.805 8.022 106.715 7.54723 106.602 7.54234C106.494 7.53745 106.358 8.2814 106.25 8.27651C106.142 8.27161 106.051 7.65002 105.939 7.64512C105.83 7.64023 105.713 8.00731 105.605 8.00731C105.496 8.00731 105.388 8.03179 105.275 8.03179C105.167 8.03179 105.054 8.13946 104.941 8.13946C104.833 8.13946 104.724 8.2863 104.616 8.2863C104.508 8.2863 104.399 8.24225 104.291 8.24225C104.182 8.24225 104.074 8.22756 103.966 8.22756C103.857 8.23246 103.731 7.56192 103.623 7.56192C103.514 7.56681 103.415 7.94858 103.307 7.95347C103.198 7.95837 103.099 8.21288 102.991 8.21778C102.882 8.22267 102.765 8.02689 102.657 8.03179C102.548 8.03668 102.444 8.1101 102.336 8.11499C102.228 8.12478 102.142 8.48208 102.034 8.49186C101.925 8.50165 101.799 8.1982 101.691 8.20799C101.582 8.21778 101.456 7.96816 101.347 7.97795C101.239 7.98774 101.167 8.40866 101.058 8.41845C100.95 8.42824 100.788 7.88495 100.684 7.89964C100.575 7.91432 100.499 8.23246 100.39 8.24225C100.282 8.25693 100.16 8.14436 100.052 8.15904C99.9434 8.17373 99.8035 7.94369 99.6996 7.95837C99.5913 7.97305 99.5777 8.71701 99.4694 8.73169C99.361 8.74638 99.1669 8.1101 99.0586 8.12478C98.9502 8.14436 98.8464 8.20309 98.7426 8.22267C98.6342 8.24225 98.6252 8.87853 98.5168 8.8981C98.4085 8.91768 98.264 8.69254 98.1602 8.71701C98.0519 8.73659 97.9886 8.9911 97.8803 9.01557C97.772 9.04004 97.632 8.85895 97.5237 8.88342C97.4153 8.90789 97.3476 9.10857 97.2392 9.12814C97.1309 9.15262 96.8736 8.42334 96.7697 8.44781C96.6614 8.47229 96.6659 9.03025 96.5621 9.05473C96.4537 9.0792 96.3634 9.17219 96.2596 9.19667C96.1558 9.22603 96.0339 9.17709 95.9255 9.20645C95.8217 9.23582 95.6818 9.12325 95.5779 9.15262C95.4741 9.18198 95.3387 9.09878 95.2348 9.13304C95.131 9.16241 95.1807 9.80847 95.0768 9.83784C94.973 9.86721 94.8466 9.80358 94.7428 9.83295C94.6389 9.86721 94.3545 9.21624 94.2507 9.25051C94.1468 9.28477 94.1017 9.53928 93.9979 9.57354C93.894 9.6078 93.8173 9.73995 93.7135 9.77421C93.6096 9.80847 93.5554 10.0043 93.4516 10.0385C93.3478 10.0728 93.2846 10.2392 93.1808 10.2734C93.0769 10.3077 92.8738 10.014 92.7744 10.0483C92.6706 10.0826 92.6074 10.2539 92.5081 10.2881C92.4043 10.3273 92.3546 10.5377 92.2553 10.572C92.1515 10.6112 91.8941 10.156 91.7948 10.1951C91.691 10.2343 91.7542 10.7923 91.6503 10.8314C91.5465 10.8706 91.2486 10.2979 91.1492 10.3371C91.0454 10.3762 91.0319 10.6895 90.9325 10.7286C90.8287 10.7678 90.7204 10.7825 90.6165 10.8216C90.5127 10.8608 90.5398 11.2964 90.4405 11.3355C90.3366 11.3747 90.2373 11.4139 90.1335 11.453C90.0297 11.4922 89.9123 11.4775 89.8085 11.5166C89.7046 11.5558 89.655 11.7516 89.5511 11.7907C89.4473 11.8299 89.2712 11.6341 89.1719 11.6733C89.0681 11.7124 88.9868 11.8201 88.8875 11.8544C88.7837 11.8935 88.6076 11.6879 88.5038 11.7222C88.3999 11.7614 88.3909 12.0942 88.2871 12.1333C88.1832 12.1676 88.0975 12.2655 87.9936 12.2998C87.8898 12.334 87.7905 12.3879 87.6866 12.4221C87.5828 12.4564 87.4609 12.427 87.3571 12.4613C87.2533 12.4955 87.1359 12.4857 87.0321 12.52C86.9282 12.5543 86.6258 11.8348 86.5264 11.869C86.4226 11.8984 86.4316 12.3536 86.3278 12.383C86.224 12.4123 86.242 12.9507 86.1382 12.9801C86.0344 13.0094 85.8944 12.9067 85.7906 12.9311C85.6867 12.9605 85.4159 12.2263 85.312 12.2508C85.2082 12.2753 85.2037 12.7745 85.0999 12.799C84.996 12.8235 84.8155 12.4613 84.7116 12.4857C84.6078 12.5102 84.5852 12.9948 84.4814 13.0192C84.3776 13.0388 84.2963 13.2493 84.1925 13.2689C84.0886 13.2884 83.9306 13.0046 83.8268 13.0192C83.723 13.0388 83.6011 12.9262 83.4927 12.9409C83.3889 12.9556 83.3483 13.5185 83.2399 13.5332C83.1361 13.5478 82.9961 13.3276 82.8923 13.3423C82.7885 13.357 82.6982 13.6213 82.5898 13.631C82.4815 13.6408 82.328 13.029 82.2196 13.0339C82.1113 13.0437 81.9984 12.8969 81.8946 12.9018C81.7863 12.9067 81.6869 12.9262 81.5786 12.9311C81.4702 12.936 81.3935 13.7485 81.2851 13.7485C81.1768 13.7534 81.0549 12.8626 80.9466 12.8626C80.8382 12.8626 80.7344 13.68 80.6306 13.68C80.5222 13.68 80.4139 13.5234 80.3055 13.5185C80.1972 13.5185 80.0843 13.6408 79.976 13.6359C79.8676 13.631 79.7818 13.0486 79.6735 13.0437C79.5651 13.0388 79.4387 13.4206 79.3349 13.4157C79.2266 13.4108 79.1408 13.078 79.0324 13.0682C78.9241 13.0584 78.8248 13.0094 78.7164 12.9997C78.6081 12.9899 78.4772 13.2689 78.3688 13.2542C78.2605 13.2444 78.1431 13.3325 78.0347 13.3178C77.9264 13.3031 77.8 13.4255 77.6916 13.4108C77.5833 13.3961 77.4885 13.2835 77.3801 13.2689C77.2718 13.2542 77.1589 13.2346 77.0506 13.2199C76.9422 13.2003 76.8068 13.3521 76.6985 13.3325C76.5901 13.3129 76.4727 13.3325 76.3644 13.308C76.256 13.2884 76.1522 13.2297 76.0439 13.2052C75.9355 13.1808 75.94 12.5494 75.8362 12.5249C75.7278 12.5004 75.633 12.4319 75.5292 12.4025C75.4209 12.3781 75.3441 12.2459 75.2403 12.2165C75.1319 12.1872 74.8475 12.9556 74.7437 12.9262C74.6353 12.8969 74.6986 12.1676 74.5992 12.1382C74.4909 12.1089 74.2155 12.7354 74.1117 12.706C74.0078 12.6717 74.0124 12.2214 73.9085 12.1872C73.8047 12.1529 73.7731 11.869 73.6693 11.8348C73.5654 11.7956 73.3216 12.2117 73.2178 12.1774C73.114 12.1382 73.1004 11.8152 73.0011 11.776C72.8973 11.7369 72.7122 11.9278 72.6129 11.8886C72.509 11.8446 72.5271 11.4824 72.4278 11.4383C72.3239 11.3943 72.0621 11.776 71.9628 11.732C71.8635 11.6879 71.9899 11.0761 71.8906 11.0272C71.7912 10.9782 71.561 11.2523 71.4617 11.2034C71.3624 11.1544 71.2947 11.0321 71.1998 10.9782C71.1005 10.9293 70.9109 11.081 70.8116 11.0321C70.7123 10.9782 70.8116 10.5035 70.7168 10.4496C70.6175 10.3958 70.4053 10.5916 70.306 10.5377C70.2112 10.4839 70.1254 10.4056 70.0306 10.3518C69.9358 10.293 69.8907 10.1364 69.7959 10.0826C69.701 10.0238 69.4708 10.2294 69.376 10.1707C69.2812 10.1119 69.1864 10.0532 69.0916 9.99446C68.9968 9.93573 68.8343 10.0043 68.744 9.94552C68.6492 9.88678 68.5137 9.91615 68.4189 9.85742C68.3241 9.79868 68.2022 9.79868 68.1074 9.73995C68.0126 9.68122 68.2248 9.04004 68.13 8.98131C68.0352 8.92258 67.7734 9.19667 67.6786 9.13793C67.5838 9.0792 67.498 9.00578 67.4032 8.95194C67.3084 8.8981 67.34 8.58975 67.2407 8.53591C67.1459 8.48208 66.8118 8.92258 66.717 8.86874C66.6222 8.8149 66.6177 8.57997 66.5183 8.52613C66.4235 8.47229 66.5093 8.01221 66.41 7.96326C66.3152 7.91432 65.9947 8.3744 65.8954 8.32545C65.796 8.27651 65.7464 8.12478 65.6471 8.07584C65.5477 8.02689 65.5116 7.83601 65.4078 7.79196C65.3085 7.74791 65.1053 7.99263 65.0015 7.95347C64.9022 7.90942 64.8931 7.62555 64.7893 7.58639C64.69 7.54724 64.7622 6.97458 64.6629 6.93543C64.5636 6.89627 64.4101 6.98927 64.3063 6.95501C64.2069 6.92074 63.9587 7.35635 63.8548 7.32209C63.751 7.28783 63.7916 6.73965 63.6878 6.70539C63.584 6.67113 63.435 6.79349 63.3311 6.75923C63.2273 6.72986 62.97 7.34167 62.8662 7.3123C62.7623 7.28293 62.7036 7.06758 62.5998 7.04311C62.496 7.01863 62.4237 6.83264 62.3199 6.80328C62.2161 6.77881 62.0581 7.04311 61.9497 7.01863C61.8459 6.99416 61.873 6.23552 61.7646 6.21105C61.6608 6.19147 61.4667 6.70049 61.3583 6.68092C61.2545 6.66134 61.2274 6.06911 61.1191 6.05443C61.0107 6.03485 60.7895 6.88648 60.6766 6.8718C60.5728 6.85712 60.5683 5.99569 60.4599 5.98101C60.3516 5.96633 60.1936 6.41172 60.0807 6.39704C59.9724 6.38236 59.9002 6.01038 59.7918 5.99569C59.6835 5.9859 59.5706 5.99569 59.4623 5.9859C59.3539 5.97612 59.2456 5.93696 59.1372 5.92717C59.0289 5.91738 58.8979 6.20615 58.7941 6.19637C58.6858 6.18658 58.5729 6.24531 58.4691 6.23552C58.3607 6.23063 58.2614 6.02506 58.1531 6.02017C58.0447 6.01527 57.9273 6.27957 57.819 6.27468C57.7106 6.26978 57.6068 6.08869 57.4985 6.08869C57.3901 6.08869 57.2818 6.3383 57.1734 6.3383C57.0651 6.3383 56.9567 6.02995 56.8484 6.02995C56.74 6.02995 56.6317 5.99569 56.5233 5.99569C56.415 6.00059 56.3247 6.53408 56.2164 6.53898C56.108 6.54387 56.0087 6.59282 55.9003 6.59771C55.792 6.60261 55.6611 6.09848 55.5527 6.10827C55.4444 6.11316 55.3722 6.62708 55.2638 6.63687C55.1555 6.64666 55.02 6.23063 54.9117 6.24042C54.8033 6.2502 54.7176 6.50472 54.6137 6.5194C54.5054 6.52919 54.3293 5.83907 54.2255 5.85375C54.1171 5.86844 54.081 6.54387 53.9727 6.55856C53.8643 6.57324 53.7334 6.36767 53.6296 6.38725C53.5212 6.40193 53.3677 6.04953 53.2594 6.06422C53.151 6.0789 53.1646 6.94522 53.0607 6.9648C52.9524 6.98437 52.7899 6.61239 52.6861 6.63197C52.5777 6.65155 52.4739 6.65644 52.3655 6.67602C52.2572 6.6956 52.1308 6.59282 52.0269 6.61729C51.9231 6.64176 51.7967 6.56834 51.6929 6.59282C51.589 6.61729 51.5258 6.87669 51.422 6.90117C51.3182 6.92564 51.2595 7.17036 51.1556 7.19483C51.0518 7.21931 50.8983 7.01863 50.7945 7.048C50.6907 7.07737 50.6184 7.25357 50.5146 7.28293C50.4108 7.3123 50.3205 7.4004 50.2166 7.42977C50.1128 7.45913 49.9322 7.17526 49.8284 7.20462C49.7246 7.23399 49.6162 7.24867 49.5124 7.28293C49.4086 7.3123 49.4086 7.74301 49.3047 7.77727C49.2009 7.81154 49.0068 7.4934 48.9029 7.52766C48.7991 7.56192 48.8126 8.00731 48.7088 8.03668C48.605 8.07094 48.456 7.9339 48.3522 7.96816C48.2483 8.00242 48.1987 8.20799 48.0948 8.24225C47.991 8.27651 47.6885 7.62065 47.5847 7.65491C47.4809 7.68917 47.3364 7.58639 47.2326 7.62065C47.1288 7.65491 47.1468 8.08073 47.043 8.11989C46.9391 8.15904 46.736 7.86048 46.6322 7.89964C46.5283 7.93879 46.5464 8.35482 46.4471 8.38908C46.3477 8.42824 46.3252 8.7219 46.2259 8.76106C46.1265 8.80022 45.8963 8.43803 45.7925 8.47229C45.6932 8.51144 45.7022 8.89321 45.5983 8.93237C45.499 8.97152 45.332 8.8149 45.2327 8.85405C45.1334 8.89321 45.0837 9.09878 44.9844 9.13793C44.8851 9.17709 44.7271 9.04983 44.6277 9.08899C44.5284 9.12814 44.4201 9.14772 44.3162 9.18688C44.2169 9.22603 44.1086 9.25051 44.0093 9.28966C43.9099 9.32882 43.6571 8.91768 43.5578 8.95684C43.4585 8.99599 43.6165 9.82805 43.5172 9.86721C43.4179 9.90636 43.0612 9.18198 42.9619 9.22114C42.8626 9.26029 42.9213 9.79379 42.822 9.83295C42.7226 9.8721 42.6323 9.95041 42.533 9.98957C42.4337 10.0287 42.3344 10.0777 42.2351 10.1168C42.1358 10.156 41.9191 9.84273 41.8197 9.88189C41.7204 9.92104 41.7114 10.2588 41.6121 10.2979C41.5128 10.3371 41.3593 10.2196 41.26 10.2588C41.1606 10.2979 40.9755 10.0679 40.8717 10.1021C40.7679 10.1413 40.655 10.1266 40.5512 10.1658C40.4473 10.2049 40.3796 10.3518 40.2803 10.386C40.1765 10.4203 40.1675 10.7678 40.0636 10.8069C39.9598 10.8412 39.8198 10.7531 39.716 10.7874C39.6122 10.8216 39.5761 11.0712 39.4722 11.1055C39.3684 11.1398 39.3232 11.3649 39.2194 11.3992C39.1156 11.4334 38.8583 10.9293 38.7499 10.9636C38.6461 10.9978 38.5242 10.9685 38.4204 11.0027C38.3165 11.037 38.3301 11.4726 38.2262 11.5068C38.1224 11.5411 37.9915 11.4775 37.8876 11.5117C37.7838 11.546 37.6258 11.3698 37.522 11.4041C37.4181 11.4383 37.4813 12.0697 37.3775 12.104C37.2737 12.1382 37.1924 12.2459 37.0841 12.2753C36.9802 12.3095 36.8584 12.2704 36.7545 12.3046C36.6507 12.3389 36.5423 12.3585 36.4385 12.3879C36.3347 12.4221 36.0322 11.6977 35.9284 11.7271C35.8245 11.7565 35.8697 12.3683 35.7659 12.4025C35.662 12.4319 35.4228 11.9278 35.3144 11.9571C35.2106 11.9865 35.2693 12.6864 35.1654 12.7158C35.0616 12.7451 34.9217 12.6375 34.8178 12.6668C34.714 12.6962 34.5515 12.4857 34.4476 12.5102C34.3438 12.5396 34.3619 13.1024 34.258 13.1318C34.1542 13.1612 33.8969 12.5347 33.793 12.5641C33.6892 12.5934 33.5222 12.3438 33.4183 12.3732C33.3145 12.4025 33.2513 12.6179 33.143 12.6473C33.0391 12.6717 33.0301 13.1612 32.9263 13.1905C32.8224 13.215 32.5877 12.6375 32.4838 12.6619C32.3755 12.6864 32.3981 13.3325 32.2897 13.3618C32.1814 13.3863 32.1272 13.6751 32.0189 13.6996C31.9105 13.724 31.7435 13.4548 31.6351 13.4793C31.5313 13.5038 31.4771 13.817 31.3733 13.8366C31.2695 13.8611 31.0302 13.1759 30.9264 13.2003C30.8225 13.2248 30.8045 13.7289 30.7006 13.7534C30.5968 13.7779 30.4072 13.3325 30.2988 13.3521C30.195 13.3765 30.2086 14.0715 30.1002 14.096C29.9964 14.1156 29.8248 13.7926 29.721 13.8121C29.6172 13.8317 29.4862 13.7191 29.3779 13.7436C29.2741 13.7632 29.107 13.4353 29.0032 13.4597C28.8994 13.4793 28.8768 14.0128 28.7684 14.0324C28.6646 14.052 28.5382 13.9541 28.4299 13.9737C28.326 13.9932 28.1996 13.8953 28.0913 13.9149C27.9874 13.9345 27.8249 13.5919 27.7166 13.6115C27.6127 13.631 27.6037 14.3114 27.4954 14.3309C27.3915 14.3505 27.3193 14.6197 27.211 14.6393C27.1071 14.6589 26.9988 14.6785 26.8904 14.698C26.7821 14.7176 26.5654 13.9394 26.4616 13.9541C26.3532 13.9688 26.29 14.2771 26.1817 14.2918C26.0733 14.3065 25.9559 14.2184 25.8476 14.2331C25.7392 14.2477 25.7122 14.884 25.6038 14.9036C25.4955 14.9183 25.2833 14.0569 25.1749 14.0715C25.0666 14.0862 24.9718 14.1743 24.8634 14.189C24.7551 14.2037 24.7235 14.8693 24.6151 14.884C24.5068 14.8987 24.3172 14.1254 24.2088 14.1352C24.1005 14.1499 24.0779 14.9525 23.9696 14.9623C23.8612 14.977 23.7664 15.1336 23.6581 15.1434C23.5497 15.1581 23.4053 14.7666 23.2969 14.7812C23.1886 14.791 23.0396 14.3114 22.9312 14.3212C22.8229 14.3309 22.7462 14.6589 22.6378 14.6687C22.5295 14.6785 22.4031 14.419 22.2947 14.4288C22.1864 14.4386 22.087 14.5071 21.9787 14.5169C21.8703 14.5267 21.771 14.6001 21.6627 14.6099C21.5543 14.6197 21.4776 15.0847 21.3692 15.0945C21.2609 15.1043 21.148 15.0651 21.0397 15.07C20.9313 15.0798 20.841 15.3784 20.7327 15.3833C20.6244 15.393 20.4844 14.8595 20.3761 14.8644C20.2677 14.8693 20.1774 15.2071 20.0691 15.212C19.9607 15.2168 19.8253 14.6295 19.7169 14.6344C19.6086 14.6393 19.5273 15.1728 19.419 15.1777C19.3106 15.1826 19.2068 15.2952 19.0985 15.3001C18.9901 15.3049 18.8727 15.0798 18.7689 15.0847C18.6606 15.0896 18.5658 15.5154 18.4574 15.5154C18.3491 15.5203 18.2407 15.5301 18.1324 15.5301C18.024 15.535 17.9021 14.791 17.7938 14.7959C17.6854 14.7959 17.5906 15.5448 17.4823 15.5497C17.3739 15.5497 17.2566 14.605 17.1482 14.605C17.0399 14.605 16.936 15.0945 16.8277 15.0945C16.7193 15.0945 16.611 14.9036 16.5027 14.9036C16.3943 14.9036 16.2905 14.6295 16.1776 14.6295C16.0693 14.6295 15.9609 14.8351 15.8526 14.8351C15.7442 14.8351 15.6314 15.2805 15.523 15.2805C15.4147 15.2805 15.3018 15.5252 15.1935 15.5252C15.0851 15.5252 14.9903 14.8547 14.882 14.8547C14.7736 14.8498 14.6517 15.4175 14.5434 15.4126C14.435 15.4077 14.3402 14.8595 14.2319 14.8595C14.1235 14.8547 14.0062 15.1336 13.8978 15.1287C13.7895 15.1239 13.6811 15.1141 13.5728 15.1092C13.4644 15.1043 13.3425 15.4567 13.2342 15.4518C13.1258 15.4469 13.0265 15.2266 12.9182 15.2217C12.8098 15.2168 12.7015 15.163 12.5931 15.1581C12.4848 15.1532 12.3855 14.9525 12.2771 14.9428C12.1688 14.9379 12.0469 15.1826 11.9385 15.1777C11.8302 15.1728 11.758 14.5659 11.6496 14.5561C11.5413 14.5463 11.3968 15.0945 11.2885 15.0847C11.1801 15.0749 11.0943 14.7078 10.986 14.698C10.8776 14.6882 10.7377 15.1434 10.6293 15.1336C10.521 15.1239 10.4442 14.7029 10.3359 14.6931C10.2276 14.6833 10.1373 14.4582 10.0289 14.4484C9.92057 14.4386 9.76708 14.9721 9.65873 14.9623C9.55039 14.9525 9.49621 14.3407 9.38787 14.3309C9.27952 14.3212 9.11248 14.9819 9.00414 14.9721C8.89579 14.9623 8.7739 15.0945 8.66555 15.0798C8.55721 15.07 8.51658 14.3603 8.40823 14.3505C8.29988 14.3358 8.17799 14.4729 8.06964 14.4582C7.9613 14.4435 7.79878 14.9623 7.69043 14.9525C7.58208 14.9379 7.51437 14.5463 7.40602 14.5316C7.29767 14.5169 7.24801 14.003 7.13966 13.9883C7.03132 13.9737 6.85074 14.5855 6.74239 14.5708C6.63405 14.5561 6.59342 13.9834 6.48507 13.9688C6.37672 13.9541 6.24129 14.1694 6.13294 14.1547C6.02459 14.1401 5.92528 14.0911 5.81693 14.0715C5.70858 14.0569 5.58669 14.145 5.48286 14.1254C5.37451 14.1107 5.32034 13.7045 5.21199 13.6849C5.10364 13.6653 4.90952 14.2722 4.80118 14.2575C4.69283 14.238 4.6522 13.7436 4.54837 13.724C4.44002 13.7045 4.34973 13.5919 4.24138 13.5723C4.16915 13.5527 4.0292 13.7485 3.92086 13.7289C3.81251 13.7142 3.64547 14.0764 3.53713 14.0569C3.42878 14.0373 3.28432 14.2575 3.17597 14.238C3.07214 14.2184 3.00893 13.9002 2.90059 13.8807C2.79224 13.8611 2.77418 13.308 2.66584 13.2835C2.55749 13.264 2.31371 14.0569 2.20536 14.0373C2.09701 14.0177 2.06541 13.5527 1.95707 13.5283C1.84872 13.5038 1.65911 13.9639 1.55076 13.9394C1.44242 13.9149 1.38824 13.5723 1.2799 13.5478C1.17155 13.5234 1.10835 13.2346 1 13.2101" stroke="#EDD3D3" stroke-miterlimit="10"/>
</svg>
