<svg width="220" height="50" viewBox="0 0 220 50" fill="none" xmlns="http://www.w3.org/2000/svg">
<g clip-path="url(#clip0)">
<path d="M0 41.5599H45.8868V45.5129H0V41.5599ZM3.84615 3.89966H41.9872V7.79923H3.84615V3.89966ZM7.58547 21.421H38.2479V25.2138H7.58547V21.421Z" fill="#1A5B96"/>
<path d="M105.021 42.7885L100.908 49.4658C94.9252 46.6346 84.9893 36.6453 82.1047 19.6581C79.2735 35.4701 69.8718 45.7799 57.4252 49.8932L56.3568 47.7564C66.453 42.3611 73.9316 33.8675 76.2286 17.4145H58.1197V14.156H76.5491C76.656 13.0342 76.7628 11.859 76.8162 10.6838C77.0299 7.3718 77.0833 3.57906 77.0833 0H83.3333C83.3333 4.32692 83.1731 8.27991 82.9594 12.3397C82.906 12.9274 82.906 13.5684 82.8526 14.156H102.778V17.4145H84.0812C88.0876 31.9444 97.0085 39.2094 105.021 42.7885Z" fill="#1A5B96"/>
<path d="M161.912 41.6133L160.417 47.5962C154.647 48.1304 145.406 48.1838 139.904 47.9167C131.517 47.4894 127.831 46.0471 124.306 40.0641C122.489 43.483 119.551 47.2757 116.827 50L113.355 46.4744C116.079 44.3911 119.391 41.5065 121.154 39.156V27.2971H114.049V24.5727H126.603V38.5684C129.434 42.6817 132.959 42.9488 140.011 43.0556C146.955 43.1624 155.342 42.468 161.912 41.6133ZM122.543 20.9402C120.673 18.483 117.415 14.7436 115.118 12.3398L116.346 10.4701C119.177 11.7522 123.451 14.2629 126.335 16.7201L122.543 20.9402ZM124.893 10.5235C122.65 7.69235 119.818 4.64748 117.361 2.19021L118.536 0.320557C121.314 1.38893 125.855 4.00645 128.632 6.4103L124.893 10.5235ZM128.045 17.0406H141.239V0.854745H146.688V17.0406H160.256V19.8184H147.543C150.908 25.5342 156.891 30.5022 161.325 32.906L157.479 37.9274C153.579 34.9359 149.306 29.5941 146.688 23.3441V40.812H141.239V23.9851C138.301 29.9146 133.333 34.6154 128.686 37.7137L127.35 35.9509C131.998 32.1047 136.592 25.9616 138.782 19.8184H128.045V17.0406ZM135.15 15.812C133.921 12.4466 131.784 7.5321 130.182 4.64748L131.944 3.31201C134.669 5.82269 137.821 9.66885 139.85 13.1945L135.15 15.812ZM149.786 15.812L148.023 14.53C149.786 11.4317 151.656 6.99791 152.831 2.7244L157.959 5.23509C155.609 9.18808 152.671 13.2479 149.786 15.812Z" fill="#1A5B96"/>
<path d="M170.94 42.7885C174.786 39.4766 177.297 36.0578 178.953 30.9296L181.143 31.4637C180.662 36.8056 178.579 42.8954 175.801 46.5813L170.94 42.7885ZM177.885 1.97656H213.034V25.8548H177.885V1.97656ZM182.959 42.2543V29.0065H188.515V39.6368C188.515 41.827 189.156 42.7885 192.468 42.9488C195.78 43.109 199.519 43.2159 203.419 42.8419C205.929 42.5749 206.25 41.7202 206.303 35.6838H208.547C210.897 45.0855 209.722 47.2757 204.647 47.8099C201.282 48.1304 195.78 48.077 192.308 47.9702C185.737 47.6496 182.959 47.1155 182.959 42.2543ZM192.682 12.0193V4.70092H183.44V12.0193H192.682ZM192.682 23.1304V14.7437H183.44V23.1304H192.682ZM191.72 28.6325L193.162 26.9231C196.261 28.4189 200.481 31.4103 203.472 34.1347L199.038 38.4082C197.009 35.2031 194.124 31.3035 191.72 28.6325ZM207.479 12.0193V4.70092H198.13V12.0193H207.479ZM207.479 23.1304V14.7437H198.13V23.1304H207.479ZM208.868 32.0513L210.63 30.7693C213.782 33.3868 217.628 37.8206 219.872 41.7736L214.85 44.765C213.194 40.171 211.325 36.3249 208.868 32.0513Z" fill="#1A5B96"/>
</g>
<defs>
<clipPath id="clip0">
<rect width="219.872" height="50" fill="white"/>
</clipPath>
</defs>
</svg>
