<svg width="216" height="50" viewBox="0 0 216 50" fill="none" xmlns="http://www.w3.org/2000/svg">
<g clip-path="url(#clip0)">
<path d="M43.8754 22.0169L38.5428 25.7656C37.4868 23.6536 36.1668 21.3305 34.7413 18.9018C25.8184 20.8553 12.1964 22.8617 1.58395 23.7592L0 17.4234C2.42872 17.529 4.96304 17.5818 7.49736 17.5818C11.4044 12.5132 14.8363 5.59662 17.0011 0L23.548 2.79831C20.2746 7.65576 15.7867 13.4108 11.246 17.529C19.2186 17.4762 27.1383 17.0539 33.2629 16.5787C31.6262 13.9388 29.831 11.2988 27.8775 8.71172L29.6727 7.12777C34.8997 11.246 41.2355 18.057 43.8754 22.0169ZM5.49102 27.5607H37.6452V49.5776H31.9958V45.7761H11.1932V49.5248H5.49102V27.5607ZM11.1932 43.0306H31.9958V30.2534H11.1932V43.0306Z" fill="#1A5B96"/>
<path d="M60.6653 22.8616C58.6061 19.7993 56.3886 17.1594 54.3823 14.8891L55.7022 13.0939C58.5533 14.5195 61.9852 16.737 64.3611 19.0073L60.6653 22.8616ZM62.1436 26.5575L64.3611 27.1911C63.2524 34.6884 61.6156 43.5585 60.3485 47.9408L54.5935 45.5649C57.0222 40.6018 59.9261 32.9989 62.1436 26.5575ZM62.5132 9.29244C60.2429 6.49413 57.8669 4.01261 55.8078 1.90068L56.9694 0.158331C59.5565 1.2143 63.358 3.22063 66.0507 5.33257L62.5132 9.29244ZM63.8332 25.5543C65.3115 23.7592 66.5787 21.5416 67.3178 19.2713L68.9018 19.6937C68.7434 22.2808 68.057 25.0263 67.1067 27.2439L63.8332 25.5543ZM66.8427 8.92285C67.793 6.28294 68.5322 3.11504 69.0602 0.475121L73.0729 1.63668C71.7529 4.48779 70.3801 7.02211 69.113 8.87005C69.905 8.81725 70.7497 8.76446 71.5417 8.65886C72.1753 7.3917 72.7561 6.12454 73.2313 4.85738L76.2408 6.28294V4.91018H83.1045C81.6262 3.64302 80.2534 2.69265 78.8279 1.74228L79.5143 0.0527344C81.4678 0.527919 83.8437 1.31989 86.2724 2.69265L84.8469 4.91018H89.9683V7.18051H76.3992C74.3928 10.3484 71.9641 13.2523 70.0634 15.2059C71.3305 15.0475 72.5449 14.8363 73.812 14.5195L73.0201 12.8299L74.3928 12.0907C75.924 13.5163 77.1383 15.3114 77.9831 17.001L75.132 18.2682C74.9208 17.5818 74.7096 16.8954 74.4456 16.209C71.7529 17.5818 68.7434 18.6377 65.8923 19.2185L64.8363 15.6282L67.5818 15.4698C68.4266 14.2555 69.3242 12.8299 70.2218 11.2988C68.585 11.8268 67.1067 12.1963 65.8395 12.4075L65.1003 8.87005C65.6811 8.87005 66.2619 8.92285 66.8427 8.92285ZM73.548 37.3283H100.317C100 40.0739 99.472 42.661 98.7328 45.0369C97.0961 50.8447 91.2355 50.9503 83.4213 46.1457L84.1605 44.1393C91.7635 46.1985 92.925 46.0401 93.717 43.7697C94.0338 42.8194 94.4034 41.2354 94.6146 39.8627H72.5449C72.0697 41.0242 71.5945 42.1858 71.1193 43.2418L66.2091 42.133C67.7402 39.1235 69.8522 33.7909 70.7497 30.623L75.0792 32.3125H93.0834V29.6726H68.4266V27.1383H98.0465V34.7412H74.5512L73.548 37.3283ZM71.3305 19.1129C72.3337 21.1721 73.0729 23.548 73.548 25.3959L70.169 26.0295C70.169 23.812 70.0106 21.6472 69.7466 19.4825L71.3305 19.1129ZM74.8152 24.9735C74.2872 22.9144 73.6008 20.8025 72.8089 18.7961L74.2344 18.1098C75.7128 19.6937 77.0855 21.7528 78.0359 23.6536L74.8152 24.9735ZM88.2788 11.1932H77.9831V8.97565H88.2788V11.1932ZM88.2788 15.2586H77.9831V13.0411H88.2788V15.2586ZM88.3844 25.1847H78.1415V17.1066H88.3844V25.1847ZM85.0053 19.2185H81.415V23.0728H85.0053V19.2185ZM88.6484 25.4487C89.8627 23.6536 90.8131 21.5416 91.4467 19.3241L93.0834 19.6409C92.925 22.2808 92.6082 24.4984 91.7107 26.8215L88.6484 25.4487ZM90.7075 8.71166C91.6579 6.07174 92.4498 2.85104 92.8722 0.105533L96.7793 1.2143C95.7761 3.59022 94.1394 6.65252 92.8722 8.71166C93.6642 8.65886 94.4562 8.65886 95.3538 8.55326C95.9873 7.18051 96.5681 5.80775 97.0961 4.43499L100.845 6.12454C98.8912 9.55643 96.1985 12.9355 94.1394 15.1531C95.4594 14.9947 96.6737 14.8363 97.9409 14.5723C97.5713 13.8331 97.2545 13.0939 96.8849 12.4603L98.2049 11.7212C99.7888 13.1467 101.478 15.6282 102.323 17.4762L99.5248 18.8489C99.3136 18.057 98.9968 17.1066 98.5744 16.1562C95.8289 17.5818 92.6082 18.4265 89.7571 19.1657L88.8068 15.4698C89.8099 15.4698 90.7075 15.417 91.6051 15.3642C92.5026 14.1499 93.4002 12.5659 94.245 10.8764C92.661 11.4044 91.2883 11.6684 89.9155 11.8796L89.1763 8.65886C89.7043 8.71166 90.2323 8.71166 90.7075 8.71166ZM94.3506 26.0295C94.2978 23.9704 94.1922 21.6472 93.8754 19.3769L95.4065 18.9545C96.4625 21.0665 97.2545 23.4952 97.6241 25.2903L94.3506 26.0295ZM102.059 23.4952L99.1024 25.0263C98.4689 23.0728 97.5713 20.7497 96.6209 18.7961L97.8881 18.1098C99.4192 19.5353 101.003 21.5416 102.059 23.4952Z" fill="#1A5B96"/>
<path d="M131.045 33.8965C126.716 37.2228 118.163 41.3411 113.041 42.9778L110.876 37.0644C113.358 36.642 115.945 36.114 118.479 35.4804V21.1721H112.566V18.5322H118.479V6.49417H111.932V3.80146H130.201V6.49417H123.759V18.5322H129.356V21.1721H123.759V34.0549C125.977 33.3685 128.141 32.6821 130.095 31.8902L131.045 33.8965ZM155.333 48.152C152.693 48.5216 150.845 48.5216 147.888 48.152C144.667 47.7825 143.77 46.1457 143.77 43.0306V30.7286H141.711C141.235 41.0771 135.058 47.9408 123.759 50L123.02 47.9408C132.682 44.9313 136.167 38.9651 136.484 30.7286H131.521V2.63989H154.382V30.7286H148.891V41.4995C148.891 42.7666 149.208 43.4002 150.528 43.5586C151.584 43.717 152.746 43.717 153.907 43.5586C155.544 43.4002 155.597 41.869 155.438 34.7941H157.55C160.507 45.4593 158.448 47.7825 155.333 48.152ZM136.589 10.8236H149.261V5.33261H136.589V10.8236ZM136.589 19.3242H149.261V13.358H136.589V19.3242ZM136.589 28.0359H149.261V21.9113H136.589V28.0359Z" fill="#1A5B96"/>
<path d="M176.188 23.1257C174.076 20.2218 170.486 15.9451 168.268 13.4636L169.535 11.6684C172.598 13.1996 177.297 16.0507 180.201 18.7434L176.188 23.1257ZM179.937 26.8744C178.617 34.3189 176.716 43.2946 174.868 48.3105L168.955 45.4066C171.753 40.4435 175.29 32.735 177.878 26.188L179.937 26.8744ZM178.511 11.8796C176.399 8.87013 173.39 5.06866 171.119 2.53434L172.439 0.791992C175.502 2.11195 180.095 5.12145 182.577 7.65577L178.511 11.8796ZM211.14 47.8881C209.029 48.0465 206.917 48.0465 204.805 47.8881C200.211 47.5185 198.733 46.4625 198.733 41.6579V23.8649H195.565C195.354 38.226 191.658 45.1954 178.933 49.7888L177.983 47.7825C188.068 42.0275 189.968 36.0613 190.074 23.8649H184.002V3.8015H210.665V23.8649H204.224V40.2323C204.224 42.7139 205.333 42.925 208.289 42.925C211.352 42.925 212.038 42.7139 211.827 32.9462H214.044C217.212 45.1954 215.364 47.5713 211.14 47.8881ZM189.44 21.1721H205.227V6.54701H189.44V21.1721Z" fill="#1A5B96"/>
</g>
<defs>
<clipPath id="clip0">
<rect width="215.637" height="50" fill="white"/>
</clipPath>
</defs>
</svg>
