<svg width="359" height="111" viewBox="0 0 359 111" fill="none" xmlns="http://www.w3.org/2000/svg">
<path d="M62.0473 27.5009V31.1358H69.4538V44.8145H65.0577V42.2318H55.3098V45.1015H50.9615V31.1358H57.5556V27.5009H52.1561V25.1095H57.5556V21.3312H51.4393C51.296 33.9098 47.7122 41.5622 43.8895 45.3885L42.3604 44.1928C44.5107 40.3666 46.0875 35.9664 46.6609 28.9836L43.0294 31.2315C42.3126 29.1749 41.5958 27.3096 40.8791 25.6356V45.1971H36.3874V28.0749C35.0972 31.8054 33.3292 35.2968 30.8445 38.5491L29.2676 37.3056C32.1824 31.9011 34.046 25.8748 35.4317 19.418H30.3189V16.9788H36.3874V0.669611H40.8791V16.9788H46.2309V19.418H40.8791V21.8094C43.1727 24.0095 45.1796 26.5922 46.6609 28.9836C46.8043 27.2618 46.8521 25.4443 46.8521 23.4356V6.45676C45.8008 9.70904 44.3673 12.77 42.6471 15.4005L41.0702 14.6353C42.0259 11.67 42.7904 7.60462 43.2205 4.1132L47.2343 5.26107L46.9954 6.07413H59.6581C57.7468 4.54365 55.3098 2.86968 53.6852 1.8653L54.4019 0.0478516C56.5522 0.526128 60.8527 1.72182 63.6242 3.2523L61.8562 6.07413H72.1297V8.46552H51.4393V18.9398H57.5556V15.544H52.395V13.1526H57.5556V9.51772H62.0473V13.1526H69.3582V18.9398H72.3209V21.3312H69.3582V27.5009H62.0473ZM31.8479 15.3527C31.5135 11.4308 30.9878 7.93941 30.3189 4.73496L32.1824 4.25668C33.7115 7.17417 34.9539 10.5221 35.9096 14.5396L31.8479 15.3527ZM55.3098 33.5272V39.7926H65.0577V33.5272H55.3098ZM61.9995 18.9398H65.1533V15.544H61.9995V18.9398ZM65.1533 25.1095V21.3312H61.9995V25.1095H65.1533Z" fill="#1A5B96"/>
<path d="M90.9565 15.9264C90.9565 27.8355 89.523 38.4054 83.12 45.3404L81.4953 44.0969C85.557 37.1619 85.987 28.5529 85.987 15.5916V2.58252H119.77V13.3437H90.9565V15.9264ZM102.807 22.1919C100.8 32.2357 96.5473 39.075 88.9018 43.236L87.755 41.6577C93.6324 37.2097 96.6428 31.2791 97.6463 23.9615H91.5777V21.5223H97.2162L98.5064 20.5179L102.807 22.1919ZM90.9565 5.02173V10.9045H114.944V5.02173H90.9565ZM123.688 38.2619L119.866 43.1882C115.756 39.9837 111.265 34.0053 108.493 26.879V40.2707C108.493 44.8143 104.336 46.8709 96.1172 42.7577L96.5473 40.7968C102.52 41.6099 103.667 41.2273 103.667 38.5011V14.7786H108.493V19.8961C109.306 22.144 110.309 24.2006 111.504 26.1137C113.654 23.818 115.756 21.3788 117.477 18.557L121.49 21.7614C118.91 24.3441 115.9 26.4485 112.842 28.1225C115.947 32.4748 119.914 35.9184 123.688 38.2619Z" fill="#1A5B96"/>
<path d="M174.865 6.50458V8.94379H144.379V16.931C144.379 30.5141 143.471 39.3144 135.539 45.6754L134.105 44.2884C137.546 39.7448 138.74 34.6751 139.17 27.7879C137.355 29.4619 135.252 31.1358 133.628 32.1402L131.191 27.6444C133.436 26.9748 136.447 25.827 139.314 24.2486C139.362 22.5747 139.409 20.8051 139.409 18.8919L134.965 20.7572C134.153 17.2658 133.245 13.9179 132.051 10.5699L133.819 9.75686C135.873 12.1961 137.928 15.4484 139.409 18.7963V16.8354V6.50458H158.093C155.704 4.68713 153.028 2.86968 151.308 1.91313L152.024 0.0478516C154.652 0.4783 159.813 2.00879 162.393 3.49144L160.482 6.50458H174.865ZM145.621 13.1048H174.292V15.544H161.82C161.868 17.4571 161.772 19.1789 161.629 20.7572H173.431V40.4144C173.431 44.8145 169.035 46.632 161.247 42.0884L161.724 40.1274C168.127 41.2753 168.892 41.0361 168.892 39.0752V23.1964H161.294C161.199 23.9138 161.055 24.5834 160.912 25.253C163.827 27.5966 167.363 31.2315 168.844 33.862L164.974 36.4925C163.779 33.7663 161.916 30.5141 160.195 27.8357C158.475 33.0489 155.56 36.0142 152.454 38.2621L151.116 36.636C153.983 33.8142 155.895 30.1314 156.755 23.1964H150.877V44.7189H146.29V20.7572H156.946C157.089 19.1789 157.137 17.4571 157.185 15.544H145.621V13.1048Z" fill="#1A5B96"/>
<path d="M226.519 29.2705V31.9489H210.273V45.4363H205.112V31.9489H183.753V29.2705H191.733V16.644H205.112V9.46987H195.364C192.879 13.4874 189.774 17.2658 186.572 19.8963L185.186 18.4615C189.009 13.5352 191.876 6.50456 193.405 0L199.139 1.62614C198.518 3.34794 197.753 5.11756 196.798 6.88718H225.564V9.46987H210.273V16.644H222.936V19.0832H210.273V29.2705H226.519ZM205.112 19.0832H196.702V29.2705H205.112V19.0832Z" fill="#1A5B96"/>
<path d="M242.479 36.1576H234.834V33.7184H242.479V29.5574H236.219V13.3916H242.479V9.61325H235.455V7.17404H242.479V0.765137H247.162V7.17404H254.091V9.61325H247.162V13.3916H253.374V29.5574H247.162V33.7184H254.807V36.1576H247.162V45.0535H242.479V36.1576ZM242.861 20.1353V15.8308H240.281V20.1353H242.861ZM242.861 27.1182V22.3832H240.281V27.1182H242.861ZM249.408 20.1353V15.8308H246.684V20.1353H249.408ZM249.408 27.1182V22.3832H246.684V27.1182H249.408ZM252.323 40.9882H263.17V31.5661H254.807V29.1269H276.31V31.5661H267.996V40.9882H277.791V43.4752H252.323V40.9882ZM254.282 3.49131H276.931V5.88269H254.282V3.49131ZM254.568 17.0265C256.528 13.5829 257.34 10.235 258.009 7.22187L262.405 8.56104C261.21 11.0003 259.251 14.3482 256.719 16.9787C259.872 20.231 261.832 23.0528 262.883 25.8268L258.391 27.4051C257.77 24.3442 256.91 21.2832 254.568 17.0265ZM261.449 16.9309C263.313 13.6308 264.173 10.1394 264.746 7.2697L269.19 8.6567C267.948 11.2872 266.228 14.3004 263.6 16.8831C266.705 19.8005 268.76 22.8615 269.859 25.5399L265.32 27.0225C264.699 24.105 263.886 20.9484 261.449 16.9309ZM268.091 17.1222C270.05 13.8221 271.054 10.1394 271.723 7.31752L276.262 8.75235C275.02 11.3829 273.061 14.3004 270.337 17.1222C273.252 19.8005 275.737 22.4789 276.931 25.2051L272.44 26.7355C271.675 23.8181 270.815 21.2354 268.091 17.1222Z" fill="#1A5B96"/>
<path d="M303.547 1.57846C302.735 5.21336 301.301 9.03957 299.39 12.6745V45.006H294.372V20.5182C292.318 23.1487 290.072 25.4923 287.635 27.4532L286.345 25.9706C291.649 19.4182 295.567 12.0527 298.195 0.287109L303.547 1.57846ZM323.951 43.2842C320.462 43.4755 316.974 43.5233 313.343 43.332C308.086 42.9972 306.844 41.8015 306.844 35.9665V1.57846H311.909V20.3747C315.541 17.6007 319.363 13.918 322.756 9.70916L327.2 13.5832C323.234 17.2181 317.786 20.7095 311.909 23.1966V35.1535C311.909 37.6405 312.626 38.3579 314.728 38.5014C317.356 38.6927 319.889 38.6449 322.326 38.5014C325.48 38.2623 325.719 37.6405 325.957 28.7446H327.964C330.115 38.6927 329.828 42.9972 323.951 43.2842Z" fill="#1A5B96"/>
<path d="M1.14681 84.7349L0 83.0609C4.68282 78.1825 7.88433 72.5388 10.0346 65.2212L15.6731 66.8473C15.0997 68.33 14.3829 69.7648 13.6184 71.1518H41.1419V73.6389H12.1371C9.22228 78.0868 5.44736 82.0087 1.14681 84.7349ZM37.128 91.4786C36.8413 94.683 36.5546 97.8396 36.2679 100.518H41.9064V102.957H35.9812L35.6945 105.062C34.8344 110.897 30.1516 113.623 20.5948 107.644L21.1682 105.827C28.527 107.501 30.1038 107.118 30.6772 103.675C30.725 103.435 30.7728 103.196 30.7728 102.957H10.2257L9.55677 106.209L4.53946 105.731C5.39957 102.001 6.40304 96.7396 7.31093 91.4786H1.24238V89.0394H7.74098C8.40996 84.974 8.98336 81.0043 9.36563 77.9912H37.9882C37.8448 81.1 37.6059 85.0218 37.3192 89.0394H43.101V91.4786H37.128ZM31.9674 91.4786H12.4238L10.7514 100.518H31.1073C31.4418 97.8875 31.7285 94.683 31.9674 91.4786ZM12.8061 89.0394H32.1585C32.4452 85.6914 32.5886 82.5348 32.6842 80.4304H14.1918C13.8573 82.7261 13.3795 85.7392 12.8061 89.0394ZM15.6731 93.8221L16.3421 92.0047C19.4958 92.7221 24.752 94.2526 28.0013 96.0222L25.5166 100.375C22.984 98.3657 18.3012 95.4483 15.6731 93.8221ZM28.0491 84.4479L25.5166 88.6089C22.8407 86.5523 19.448 84.3044 16.7721 82.7261L17.5367 80.9087C20.3081 81.5304 24.991 82.8696 28.0491 84.4479Z" fill="#1A5B96"/>
<path d="M58.3441 89.1348C57.6751 89.1348 56.9106 89.1826 56.0982 89.2782V85.6912C61.45 85.2607 64.7949 82.1519 64.7949 78.8996C64.7949 75.8865 62.6924 73.7343 59.2997 73.7343C55.9071 73.7343 53.5179 75.2169 51.6065 76.6518V72.4429C52.8489 71.8212 55.8593 70.5776 60.351 70.5776C67.7097 70.6255 70.29 73.8777 70.2422 78.7083C70.1945 83.252 65.7983 85.739 62.7402 86.7434V87.0303C66.7062 87.2695 71.9147 90.1391 71.9147 96.0219C71.9147 104.392 65.7506 106.974 58.2963 107.07C55.8593 107.118 53.0878 106.735 51.0809 106.114L50.7942 103.244C52.9923 103.914 55.5248 104.105 57.2928 104.009C63.2658 103.674 66.3718 101.953 66.3718 96.2133C66.3718 91.8609 62.2146 89.1826 58.3441 89.1348Z" fill="#1A5B96"/>
<path d="M124.764 84.8303L121.467 90.474C119.221 89.1348 117.262 87.5086 115.541 85.6434C115.016 96.0698 114.299 102.431 113.773 105.492C112.818 110.562 108.374 112.666 98.3391 107.501L98.9126 105.54C106.988 107.07 108.135 106.831 108.613 103.961C109.234 100.231 109.664 95.9263 110.094 87.9869H101.015C100.059 96.0698 96.4756 106.783 82.8572 110.992L82.0449 109.079C92.8918 103.531 94.8987 94.6828 95.711 87.9869H88.0178V86.5521C86.202 88.2261 84.0996 89.7565 81.6626 91.1435L80.5158 89.4217C87.4444 83.4911 90.4548 76.7952 92.6529 68.6167L97.9569 70.195C96.4756 74.7865 93.9908 80.3345 89.4514 85.1173H115.111C111.575 80.9562 109.377 75.7909 108.278 70.5298H99.7249V67.6602H110.333C112.149 75.1691 116.497 81.0997 124.764 84.8303Z" fill="#1A5B96"/>
<path d="M149.086 102.766C145.836 105.013 138.048 108.074 133.508 109.222L132.122 104.153C133.938 103.961 136.232 103.674 138.621 103.292V88.6086H132.696V86.2172H138.621V81.1475H134.942V81.0996C134.368 81.6257 133.795 82.104 133.174 82.5823L132.122 81.2909C135.849 76.6038 138.048 71.7254 139.385 65.6513L144.355 67.1818L143.638 68.8557C145.836 70.4341 148.608 72.7776 150.232 74.9299L146.649 77.8473C145.454 75.4081 143.925 72.8733 142.635 70.9602C141.153 73.9255 139.433 76.4603 137.331 78.7561H147.318V81.1475H143.113V86.2172H148.799V88.6086H143.113V102.431C145.12 102 147.031 101.522 148.512 101.044L149.086 102.766ZM138.143 100.039L134.177 100.757C134.129 97.7436 133.795 94.3001 133.269 91.0478L134.989 90.6173C136.518 93.6783 137.617 97.0262 138.143 100.039ZM145.597 90.2825L149.372 91.3826C148.608 94.0131 147.126 97.5523 145.215 100.231L143.638 99.6567C144.546 96.6436 145.263 93.1044 145.597 90.2825ZM164.185 106.496H174.937V108.887H148.225V106.496H159.502V103.292H150.519V100.9H159.502V97.8871H151.14V85.1171H172.547V97.8871H164.185V100.9H173.312V103.292H164.185V106.496ZM174.937 80.3344V82.7258H149.229V80.3344H156.158C155.489 78.1821 154.724 75.9821 153.864 73.9733L154.772 73.3515H150.232V70.9602H161.032C159.359 69.5732 157.734 68.3775 155.919 67.1818L156.54 65.5078C158.929 65.9383 162.131 66.9905 164.998 68.521L163.421 70.9602H173.551V73.3515H167.148L169.967 74.3559C168.868 76.4125 167.387 78.6126 165.953 80.3344H174.937ZM159.646 87.4607H155.441V90.2825H159.646V87.4607ZM159.646 92.5783H155.441V95.5436H159.646V92.5783ZM160.458 79.2822L158.308 80.3344H163.325C164.233 77.9908 164.902 75.456 165.38 73.3515H155.871C157.687 75.1212 159.12 77.0821 160.458 79.2822ZM164.138 90.2825H168.247V87.4607H164.138V90.2825ZM164.138 95.5436H168.247V92.5783H164.138V95.5436Z" fill="#1A5B96"/>
<path d="M192.856 94.1566C191.183 99.4654 187.552 104.535 184.732 107.166L183.394 105.922C185.115 103.148 187.313 98.2219 188.555 92.9131L192.856 94.1566ZM207.764 75.5038H184.063V73.1124H195.818C194.098 71.1036 191.709 68.6166 190.227 67.2774L191.231 65.5078C193.907 66.5122 198.303 68.9036 200.119 70.4341L197.825 73.1124H207.764V75.5038ZM198.542 90.5217V105.683C198.542 110.466 194.289 111.709 187.456 108.696L187.886 106.783C193.333 107.548 193.907 107.022 193.907 104.631V90.5217H187.265V78.9474H204.802V90.5217H198.542ZM191.9 88.0825H200.214V81.3866H191.9V88.0825ZM221.096 109.653C215.505 109.653 214.502 108.792 214.502 104.774V88.2738C213.307 99.6567 210.201 105.779 202.699 110.944L201.409 109.461C203.607 107.357 205.232 105.253 206.474 102.813L202.699 104.535C201.887 101.522 200.501 96.6436 199.498 93.487L201.17 92.6261C203.034 94.9218 205.423 99.322 206.713 102.335C209.054 97.5523 209.914 91.5739 210.201 82.4388H205.853V79.9996H210.249C210.344 75.9821 210.344 71.4384 210.344 66.1296H215.123C215.171 71.3428 215.171 75.9342 215.027 79.9996H225.97V82.4388H214.932C214.884 83.5388 214.788 84.6389 214.741 85.6433H218.898V102.574C218.898 104.822 219.28 105.3 221.335 105.3C223.963 105.3 223.724 104.583 223.915 96.3566H225.826C228.12 107.835 227.021 109.653 221.096 109.653ZM220.714 78.8039C219.71 75.6951 218.277 72.1559 216.939 69.3819L218.515 68.3296C220.761 70.2906 223.437 73.8298 224.871 76.6038L220.714 78.8039Z" fill="#1A5B96"/>
<path d="M250.196 93.774L251.009 95.5914C246.899 98.7002 240.735 101.761 236.578 103.387L234.523 98.4133C236.1 98.1263 238.25 97.648 240.496 97.0263V81.0997H235.574V78.6604H240.496V66.9427H245.179V78.6604H249.623V81.0997H245.179V95.5914C247.042 95.0175 248.81 94.3958 250.196 93.774ZM276.525 74.2125V88.8956H250.292V74.2125H256.934C255.739 71.4863 254.258 68.8558 253.063 66.9905L254.497 65.747C256.743 67.3253 259.849 70.3384 261.473 72.5385L259.084 74.2125H265.344C266.443 71.7733 267.733 68.1384 268.354 65.5557L273.324 67.6601C272.129 69.621 270.026 72.2515 268.211 74.2125H276.525ZM252.346 91.8131H274.423V110.227H269.788V107.309H257.029V110.227H252.346V91.8131ZM261.186 76.6517H254.688V86.4564H261.186V76.6517ZM257.65 85.6911C256.934 83.2519 255.882 80.5736 255.022 78.4213L256.647 77.5126C258.033 79.1387 259.801 81.5779 261.043 84.065L257.65 85.6911ZM257.029 98.222H269.788V94.2523H257.029V98.222ZM257.029 104.918H269.788V100.566H257.029V104.918ZM272.081 76.6517H265.344V86.4564H272.081V76.6517ZM267.159 85.5476L265.63 84.7346C266.443 82.7736 267.398 80.0953 268.115 77.3691L271.651 78.8996C270.409 81.3866 268.641 83.9693 267.159 85.5476Z" fill="#1A5B96"/>
<path d="M295.495 75.456L288.567 78.5647V74.2603L296.881 71.3428H301.134V106.448H295.83V75.456H295.495Z" fill="#1A5B96"/>
<path d="M334.009 73.0166V67.1338H339.648C339.648 70.2904 339.6 73.3992 339.648 75.3601C341.368 88.6562 348.153 98.7479 359 105.013L354.938 110.561C347.914 106.065 340.364 95.5434 338.453 81.8169C336.494 96.7869 328.657 105.779 316.902 110.466L315.851 108.648C330.378 99.7522 334.009 86.3127 334.009 73.0166Z" fill="#1A5B96"/>
</svg>
