<svg width="214" height="50" viewBox="0 0 214 50" fill="none" xmlns="http://www.w3.org/2000/svg">
<g clip-path="url(#clip0)">
<path d="M45.1832 43.665V46.8587H0.366492V43.665H20.2094V30.7331H5.34031V27.8012H20.2094V16.7017H10C7.69634 21.0472 4.81675 24.8692 1.62304 27.6964L0 26.2828C4.13613 20.2619 7.06806 12.4608 8.58639 2.9844L14.555 4.50273C13.822 7.69644 12.7225 10.8902 11.3613 13.8745H20.2094V0.994873H25.9162V13.8745H41.7277V16.7017H25.9162V27.8012H40.5759V30.7331H25.9162V43.665H45.1832Z" fill="#1A5B96"/>
<path d="M62.4084 23.1414C60.4188 20.1571 56.7016 15.9162 54.555 13.5079L55.8639 11.623C58.9005 13.089 63.5079 15.9686 66.4921 18.6911L62.4084 23.1414ZM65.0262 25.0785L67.1204 25.7592C66.0733 32.4084 63.5602 43.0367 61.7801 48.4293L55.7068 45.6021C58.6911 40.1047 62.356 32.0419 65.0262 25.0785ZM64.3456 11.623C62.0942 8.63875 59.0052 4.86912 56.8063 2.40839L58.2199 0.628284C61.1518 2.0419 65.6545 4.86912 68.4293 7.43457L64.3456 11.623ZM87.5916 19.6859V28.4293H98.6911V49.1623H93.2984V45.6021H76.4922V49.3717H71.0995V28.4293H81.9895V19.6859H68.1675V16.9634H81.9895V8.74347C77.4346 9.31938 73.2461 9.68587 70.4188 9.84294L70 7.59163C76.2304 6.64923 87.8534 3.92671 94.3456 0.575928L99.3717 5.28797C96.178 6.28273 91.9372 7.17279 87.5916 7.90577V16.9634H101.937V19.6859H87.5916ZM76.4922 31.0995V42.8796H93.2984V31.0995H76.4922Z" fill="#1A5B96"/>
<path d="M133.822 13.6124V44.0836C133.822 48.691 129.634 51.2564 121.152 46.8061L121.623 44.8166C128.168 45.759 129.11 45.4449 129.11 42.0941V34.2407H119.11C118.639 40.0522 117.12 45.3402 112.67 49.7904L110.995 48.4815C113.77 44.136 114.555 38.848 114.555 28.5339V17.225C113.822 17.958 113.037 18.691 112.199 19.3192L110.785 17.7485C114.45 13.5601 117.225 6.54436 118.377 0.418701L123.874 1.7276C123.403 3.08886 122.88 4.3454 122.304 5.60195H125.916L127.12 4.76425L131.728 7.27734C130.105 9.58101 128.429 11.8847 126.806 13.6124H133.822ZM117.696 13.6124H123.822C124.66 11.8323 125.288 9.9475 125.812 8.2721H121.047C120.052 10.2093 118.901 11.9894 117.696 13.6124ZM121.99 24.9737H119.319V28.7957C119.319 29.7904 119.319 30.7328 119.267 31.6752H121.99V24.9737ZM121.99 16.2826H119.319V22.4606H121.99V16.2826ZM129.11 16.2826H126.335V22.4606H129.11V16.2826ZM129.11 31.6752V24.9737H126.335V31.6752H129.11ZM157.696 35.1831V37.8533H148.953V49.4239H143.822V37.8533H134.607V35.1831H143.822V29.0574H139.11C138.115 31.0993 136.859 33.0365 135.445 34.4501L133.822 33.403C135.55 30.0522 136.963 24.5025 137.539 20.3663L141.937 21.3611C141.623 22.7747 141.047 24.5548 140.314 26.4396H143.822V18.848H148.953V26.4396H156.387V29.0574H148.953V35.1831H157.696ZM140.471 7.06792H134.764V4.39776H155.864C155.654 9.00509 155.393 12.2512 154.921 14.6072C154.136 18.7433 150 19.4239 144.293 16.0732L144.974 14.1883C149.319 15.0784 150.052 14.8166 150.314 12.9841C150.524 11.6752 150.733 9.16216 150.785 7.06792H145.393C144.921 14.7119 140.576 18.6386 134.974 20.9946L133.979 19.2145C139.058 15.8637 140.262 11.2564 140.471 7.06792Z" fill="#1A5B96"/>
<path d="M189.372 14.7644C189.319 17.3298 189.215 19.8953 189.005 22.356H208.482C208.01 33.7696 207.382 39.6859 206.597 43.3508C205.183 50.2094 198.848 51.8848 188.22 45.5497L189.058 43.2461C198.901 45.3403 200.105 44.8168 200.838 41.0995C201.257 38.8482 201.885 33.7696 202.304 25.3403H188.586C187.016 35.9162 182.251 45.1309 168.953 50L168.01 47.9581C181.257 40.4188 183.194 29.9476 183.403 14.7644H169.634V11.5707H192.827C190.576 8.53403 187.277 4.50262 184.974 1.83246L186.44 0C190.052 1.83246 195.079 5.2356 198.115 8.06283L194.607 11.5707H213.927V14.7644H189.372Z" fill="#1A5B96"/>
</g>
<defs>
<clipPath id="clip0">
<rect width="213.927" height="50" fill="white"/>
</clipPath>
</defs>
</svg>
